<svg xmlns="http://www.w3.org/2000/svg" width="35.667" height="35.667" viewBox="0 0 35.667 35.667">
  <g id="Group_25874" data-name="Group 25874" transform="translate(-280 -1374)">
    <g id="XMLID_33_" transform="translate(280 1374)">
      <path id="XMLID_34_" d="M121.093,103.057h0A17.833,17.833,0,0,1,103.26,85.223h0A17.833,17.833,0,0,1,121.093,67.39h0a17.833,17.833,0,0,1,17.833,17.833h0A17.83,17.83,0,0,1,121.093,103.057Z" transform="translate(-103.26 -67.39)" fill="#a9a9a9"/>
    </g>
    <path id="XMLID_26_" d="M139.8,87.863v1.47h4.247v3.975H139.8v12.663h-4.74V93.358H132.59V89.336h2.467V86.959c0-1.117,1.3-4.759,6.683-4.759a7.573,7.573,0,0,1,3.766,1.074l-1.451,3.452a3.455,3.455,0,0,0-2.063-.714A2.124,2.124,0,0,0,139.8,87.863Z" transform="translate(158.786 1297.544)" fill="#fff"/>
  </g>
</svg>
