<svg xmlns="http://www.w3.org/2000/svg" width="35.667" height="35.667" viewBox="0 0 35.667 35.667">
  <g id="Group_25872" data-name="Group 25872" transform="translate(-405.256 -1374)">
    <g id="XMLID_27_" transform="translate(405.256 1374)">
      <g id="Group_156" data-name="Group 156" transform="translate(0 0)">
        <path id="XMLID_22_" d="M444.043,103.057h0A17.833,17.833,0,0,1,426.21,85.223h0A17.833,17.833,0,0,1,444.043,67.39h0a17.833,17.833,0,0,1,17.833,17.833h0A17.83,17.83,0,0,1,444.043,103.057Z" transform="translate(-426.21 -67.39)" fill=" #db4a39"/>
      </g>
    </g>
    <g id="XMLID_13_" transform="translate(411.784 1384.445)">
      <path id="XMLID_15_" d="M457.274,101.313h-6.923l.008,1.982h4.666a4.583,4.583,0,0,1-4.542,3.894,5.43,5.43,0,1,1,3.692-9.409l1.532-1.319a7.443,7.443,0,1,0-5.224,12.745c3.948,0,6.8-3.01,6.8-7.121Z" transform="translate(-443.04 -94.32)" fill="#fff"/>
      <path id="XMLID_14_" d="M493.5,108.048h-2.858V105.19h-1.823v2.858H485.96v1.823h2.855v2.855h1.823v-2.855H493.5Z" transform="translate(-469.313 -100.974)" fill="#fff"/>
    </g>
  </g>
</svg>
