<svg xmlns="http://www.w3.org/2000/svg" width="35.667" height="35.667" viewBox="0 0 35.667 35.667">

  <defs>
    <linearGradient id="linear-gradient" x1="0.785" y1="0.188" x2="0.22" y2="0.832" gradientUnits="objectBoundingBox">
      <stop offset="0" stop-color="#ca38a7"/>
      <stop offset="0.355" stop-color="#ec4a62"/>
      <stop offset="0.696" stop-color="#ffa34c"/>
      <stop offset="1" stop-color="#ffd754"/>
    </linearGradient>
    <filter id="XMLID_36_" x="0" y="0" width="71.667" height="71.667" filterUnits="userSpaceOnUse">
      <feOffset dy="3" input="SourceAlpha"/>
      <feGaussianBlur stdDeviation="6" result="blur"/>
      <feFlood flood-opacity="0.161"/>
      <feComposite operator="in" in2="blur"/>
      <feComposite in="SourceGraphic"/>
    </filter>
  </defs>

  
  <g id="Group_25873" data-name="Group 25873" transform="translate(-322.237 -1374)">
    <g id="XMLID_35_" transform="translate(322.237 1374)">
      <path id="XMLID_36_" d="M229.993,103.057h0A17.833,17.833,0,0,1,212.16,85.223h0A17.833,17.833,0,0,1,229.993,67.39h0a17.833,17.833,0,0,1,17.833,17.833h0A17.835,17.835,0,0,1,229.993,103.057Z" transform="translate(-212.16 -67.39)" fill="url(#linear-gradient)"/>
    </g>
    <g id="XMLID_16_" transform="translate(329.587 1381.043)">
      <path id="XMLID_23_" d="M241.594,87.439c2.8,0,3.13.012,4.235.062a5.811,5.811,0,0,1,1.947.361,3.3,3.3,0,0,1,1.206.783,3.246,3.246,0,0,1,.783,1.206,5.789,5.789,0,0,1,.361,1.947c.05,1.105.062,1.435.062,4.235s-.012,3.13-.062,4.235a5.789,5.789,0,0,1-.361,1.947,3.3,3.3,0,0,1-.783,1.206,3.246,3.246,0,0,1-1.206.783,5.788,5.788,0,0,1-1.947.361c-1.105.05-1.435.062-4.235.062s-3.13-.012-4.235-.062a5.812,5.812,0,0,1-1.947-.361,3.3,3.3,0,0,1-1.206-.783,3.246,3.246,0,0,1-.783-1.206,5.788,5.788,0,0,1-.361-1.947c-.05-1.105-.062-1.435-.062-4.235s.012-3.13.062-4.235a5.788,5.788,0,0,1,.361-1.947,3.3,3.3,0,0,1,.783-1.206,3.246,3.246,0,0,1,1.206-.783,5.789,5.789,0,0,1,1.947-.361c1.105-.054,1.435-.062,4.235-.062m0-1.889c-2.847,0-3.2.012-4.321.062a7.652,7.652,0,0,0-2.544.489,5.367,5.367,0,0,0-3.068,3.068,7.652,7.652,0,0,0-.489,2.544c-.05,1.117-.062,1.474-.062,4.321s.012,3.2.062,4.321a7.652,7.652,0,0,0,.489,2.544,5.366,5.366,0,0,0,3.068,3.068,7.752,7.752,0,0,0,2.544.489c1.117.05,1.474.062,4.321.062s3.2-.012,4.321-.062a7.653,7.653,0,0,0,2.544-.489,5.367,5.367,0,0,0,3.068-3.068,7.652,7.652,0,0,0,.489-2.544c.05-1.117.062-1.474.062-4.321s-.012-3.2-.062-4.321a7.652,7.652,0,0,0-.489-2.544,5.367,5.367,0,0,0-3.068-3.068,7.752,7.752,0,0,0-2.544-.489c-1.117-.05-1.474-.062-4.321-.062" transform="translate(-231.11 -85.55)" fill="#fff"/>
      <path id="XMLID_18_" d="M249.643,98.7a5.383,5.383,0,1,0,5.383,5.383,5.384,5.384,0,0,0-5.383-5.383m0,8.874a3.495,3.495,0,1,1,3.495-3.495,3.493,3.493,0,0,1-3.495,3.495" transform="translate(-239.16 -93.6)" fill="#fff"/>
      <path id="XMLID_17_" d="M271.843,96.167a1.257,1.257,0,1,1-1.257-1.257,1.256,1.256,0,0,1,1.257,1.257" transform="translate(-254.506 -91.28)" fill="#fff"/>
    </g>
  </g>
</svg>
