<svg xmlns="http://www.w3.org/2000/svg" width="35.667" height="35.667" viewBox="0 0 35.667 35.667">
  <g id="Group_25871" data-name="Group 25871" transform="translate(-364.008 -1374)">
    <g id="XMLID_31_" transform="translate(364.008 1374)">
      <path id="XMLID_32_" d="M337.693,103.057h0A17.833,17.833,0,0,1,319.86,85.223h0A17.833,17.833,0,0,1,337.693,67.39h0a17.833,17.833,0,0,1,17.833,17.833h0A17.83,17.83,0,0,1,337.693,103.057Z" transform="translate(-319.86 -67.39)" fill=" #0e76a8"/>
    </g>
    <g id="XMLID_5_" transform="translate(373.728 1380.458)">
      <g id="XMLID_9_" transform="translate(0 0)">
        <rect id="XMLID_12_" width="3.867" height="12.489" transform="translate(0.368 6.244)" fill="#fff"/>
        <path id="XMLID_10_" d="M347.2,88.648a2.3,2.3,0,1,0-2.284-2.3A2.293,2.293,0,0,0,347.2,88.648Z" transform="translate(-344.92 -84.04)" fill="#fff"/>
      </g>
      <path id="XMLID_6_" d="M365.924,105.464c0-1.757.807-2.8,2.354-2.8,1.42,0,2.106,1,2.106,2.8v6.555h3.847v-7.908c0-3.343-1.9-4.961-4.542-4.961a4.351,4.351,0,0,0-3.762,2.063V99.53H362.22v12.489h3.708S365.924,107.388,365.924,105.464Z" transform="translate(-355.51 -93.29)" fill="#fff"/>
    </g>
  </g>
</svg>
