<svg xmlns="http://www.w3.org/2000/svg" width="7013.865" height="1158.16" viewBox="0 0 7013.865 1158.16">
  <g id="Group_1" data-name="Group 1" transform="translate(-916.035 -2264.192)">
    <path id="Path_1" data-name="Path 1" d="M1922.666,2283.055a49.784,49.784,0,0,0-16.5-11.324,54.019,54.019,0,0,0-21.386-4.122h-52.951v145.7h28.115V2371.1h24.836a54.036,54.036,0,0,0,21.386-4.121,49.754,49.754,0,0,0,16.5-11.324,51.06,51.06,0,0,0,10.566-16.482,54.734,54.734,0,0,0,0-39.526,50.845,50.845,0,0,0-10.57-16.591M1884.78,2345.4h-24.836v-52.083h24.836a23.146,23.146,0,0,1,9.892,2.074,22.694,22.694,0,0,1,7.519,5.61,26.778,26.778,0,0,1,4.869,8.275,29.883,29.883,0,0,1,0,20.163,26.768,26.768,0,0,1-4.868,8.275,22.645,22.645,0,0,1-7.52,5.612,23.114,23.114,0,0,1-9.892,2.074" fill="#005293"/>
    <path id="Path_2" data-name="Path 2" d="M2084.423,2287.52a71.857,71.857,0,0,0-23.732-16.975,81.175,81.175,0,0,0-62.962,0A71.846,71.846,0,0,0,1974,2287.52a75.4,75.4,0,0,0-14.865,24.422,81.013,81.013,0,0,0,0,57.034A75.373,75.373,0,0,0,1974,2393.4a71.785,71.785,0,0,0,23.732,16.976,81.2,81.2,0,0,0,62.961,0,71.8,71.8,0,0,0,23.732-16.976,75.479,75.479,0,0,0,14.865-24.423,81.023,81.023,0,0,0,0-57.034,75.479,75.479,0,0,0-14.864-24.422m-55.213,103.5a42.679,42.679,0,0,1-19.093-4.163,45.117,45.117,0,0,1-14.48-11.238,50.255,50.255,0,0,1-9.19-16.184,58.255,58.255,0,0,1,0-37.956,50.3,50.3,0,0,1,9.19-16.184,45.191,45.191,0,0,1,14.48-11.239,45.867,45.867,0,0,1,38.185,0,45.236,45.236,0,0,1,14.481,11.239,50.293,50.293,0,0,1,9.19,16.184,58.258,58.258,0,0,1,0,37.957,50.242,50.242,0,0,1-9.19,16.184,45.145,45.145,0,0,1-14.48,11.238,42.694,42.694,0,0,1-19.093,4.163" fill="#005293"/>
    <path id="Path_3" data-name="Path 3" d="M2252.5,2362.29l-30.738-94.68h-20.719l-30.737,94.68-30.548-94.68H2110.1l50.371,145.7h20.28l30.738-94.68,30.548,94.68h20.284l50.371-145.7h-29.651Z" fill="#005293"/>
    <path id="Path_4" data-name="Path 4" d="M2331.962,2413.309h86.2v-25.7h-58.089v-33.793h58.089v-25.7h-58.089v-34.8h58.089v-25.7h-86.2Z" fill="#005293"/>
    <path id="Path_5" data-name="Path 5" d="M2538.662,2359.345a53.512,53.512,0,0,0,9.909-11.175,49.535,49.535,0,0,0,6.246-13.547,54.934,54.934,0,0,0,2.108-15.268,53.674,53.674,0,0,0-3.691-19.709,50.855,50.855,0,0,0-10.57-16.591,49.767,49.767,0,0,0-16.5-11.323,54.019,54.019,0,0,0-21.386-4.122h-52.951v145.7h28.115V2371.1h19.211l25.728,42.21h32.187L2528.29,2366.1a48.128,48.128,0,0,0,10.372-6.76m-58.72-66.032h24.836a23.145,23.145,0,0,1,9.892,2.074,22.7,22.7,0,0,1,7.519,5.611,26.8,26.8,0,0,1,4.869,8.274,29.886,29.886,0,0,1,0,20.164,26.779,26.779,0,0,1-4.868,8.275,22.635,22.635,0,0,1-7.519,5.611,23.106,23.106,0,0,1-9.893,2.074h-24.836Z" fill="#005293"/>
    <path id="Path_6" data-name="Path 6" d="M2585.371,2413.309h86.2v-25.7h-58.089v-33.793h58.089v-25.7h-58.089v-34.8h58.089v-25.7h-86.2Z" fill="#005293"/>
    <path id="Path_7" data-name="Path 7" d="M2807.848,2290.3a73.586,73.586,0,0,0-23.712-16.442c-9.325-4.144-20.114-6.246-32.07-6.246h-48.127v145.7h48.127c11.956,0,22.746-2.1,32.07-6.245a73.572,73.572,0,0,0,23.712-16.442,69.885,69.885,0,0,0,14.694-23.343,74.606,74.606,0,0,0,0-53.638,69.907,69.907,0,0,0-14.694-23.344m-55.782,97.309h-20.012v-94.293h20.012a47.55,47.55,0,0,1,19.866,4,44.143,44.143,0,0,1,14.655,10.551,46.8,46.8,0,0,1,9.063,15.078,50.145,50.145,0,0,1,0,35.045,46.754,46.754,0,0,1-9.062,15.076,44.114,44.114,0,0,1-14.656,10.553,47.548,47.548,0,0,1-19.866,3.995" fill="#005293"/>
    <path id="Path_8" data-name="Path 8" d="M3004.855,2345.4a32.584,32.584,0,0,0-9.154-6.415c-.145-.066-.29-.13-.434-.194.549-.278,1.1-.574,1.641-.883a34.268,34.268,0,0,0,8.566-6.936,34.876,34.876,0,0,0,6.176-9.957,33.556,33.556,0,0,0,2.4-12.918,54.4,54.4,0,0,0-1.678-12.651,32.169,32.169,0,0,0-7.067-13.4,40.855,40.855,0,0,0-14.651-10.3c-6.192-2.744-14.377-4.134-24.329-4.134h-50.539v145.7h50.74c9.965,0,18.226-1.462,24.553-4.345a40.913,40.913,0,0,0,14.968-10.943,36.738,36.738,0,0,0,7.319-14.018,52.252,52.252,0,0,0,1.89-12.993,34.9,34.9,0,0,0-3.056-15.042,36.58,36.58,0,0,0-7.347-10.567m-19.651-29.954a13.035,13.035,0,0,1-2.713,5.228,16.5,16.5,0,0,1-5.862,4.251,24.872,24.872,0,0,1-10.3,1.777H2943.9v-33.391h22.424a24.922,24.922,0,0,1,10.3,1.777,15.952,15.952,0,0,1,5.836,4.32,13.859,13.859,0,0,1,2.738,5.356,19.811,19.811,0,0,1,0,10.682m-1.533,66.262a15.038,15.038,0,0,1-5.792,4.2,26.151,26.151,0,0,1-10.346,1.7H2943.9v-35.2h23.831a21.033,21.033,0,0,1,9.693,1.926,18.749,18.749,0,0,1,5.948,4.679,15.1,15.1,0,0,1,2.942,5.688,22.793,22.793,0,0,1,.826,5.509,27.169,27.169,0,0,1-.741,5.975,13.734,13.734,0,0,1-2.731,5.527" fill="#005293"/>
    <path id="Path_9" data-name="Path 9" d="M3115.063,2267.609l-28.843,57.877-35.957-57.877h-32.629l54.308,87.059-29.111,58.641h30.909l72.226-145.7Z" fill="#005293"/>
    <path id="Path_10" data-name="Path 10" d="M2272.3,2680.893v411.238h-96.191v-55.6q-19.422,30.9-55.155,48.536t-71.922,17.65q-46.787,0-85.6-17.208A200.175,200.175,0,0,1,1896.8,3038.3a219.49,219.49,0,0,1-43.242-68.833q-15.45-38.823-15.443-82.954A223.386,223.386,0,0,1,1853.559,2804a218.584,218.584,0,0,1,43.242-69.277,200.384,200.384,0,0,1,66.627-47.212q38.823-17.208,85.6-17.208,36.174,0,71.922,17.649,35.741,17.664,55.155,48.537v-55.6Zm-217.974,336.226q27.344,0,49.861-10.59a119.231,119.231,0,0,0,38.388-28.239,127.47,127.47,0,0,0,24.709-41.477,147.77,147.77,0,0,0,0-100.6,127.629,127.629,0,0,0-24.709-41.477,119.45,119.45,0,0,0-38.388-28.239q-22.5-10.591-49.861-10.591t-49.419,10.591a119.508,119.508,0,0,0-62.215,69.716,155.091,155.091,0,0,0,0,100.6,119.508,119.508,0,0,0,62.215,69.716q22.048,10.59,49.419,10.59" fill="#005293"/>
    <path id="Path_11" data-name="Path 11" d="M2807.288,3092.13V2861.8q0-49.411-18.091-78.1-18.1-28.665-58.685-28.68a90.863,90.863,0,0,0-33.976,6.177q-15.45,6.186-27.357,21.18-11.913,15.016-18.532,39.271-6.62,24.282-6.619,61.332V3092.13h-96.191V2860.919q0-49.411-17.208-77.659t-57.8-28.239a94.347,94.347,0,0,0-34.416,6.177q-15.885,6.186-27.8,21.18-11.913,15.016-18.973,39.271-7.074,24.282-7.06,61.332V3092.13h-96.191V2680.894h96.191v57.359q13.238-28.232,43.683-48.095t71.04-19.856q56.465,0,86.483,21.18,29.991,21.182,43.242,52.068,15-30.882,48.537-52.068t77.658-21.18q45.876,0,75.011,14.562t45.448,37.5a133.239,133.239,0,0,1,22.062,51.625,294.376,294.376,0,0,1,5.736,57.8V3092.13Z" fill="#005293"/>
    <path id="Path_12" data-name="Path 12" d="M3306.561,2886.509c0-31.568,4.788-61.458,14.225-88.821q1.866-5.39,3.939-10.621a215.829,215.829,0,0,0-35.773-52.347,200.78,200.78,0,0,0-66.631-47.214q-38.838-17.205-85.6-17.206-36.187,0-71.922,17.651t-55.15,48.536v-262.1h-96.2v617.739h96.2v-55.594q19.4,30.9,55.15,48.536t71.922,17.65q46.76,0,85.6-17.206a200.34,200.34,0,0,0,66.631-47.214,217.364,217.364,0,0,0,35.407-51.32q-2.427-6.233-4.521-12.724c-8.8-27.313-13.277-56.837-13.277-87.745m-63.5,50.3a119.549,119.549,0,0,1-62.218,69.72q-22.062,10.587-49.415,10.582-28.251,0-50.748-10.582a119.351,119.351,0,0,1-38.389-28.241,121.63,121.63,0,0,1-24.263-41.479,155.152,155.152,0,0,1,0-100.607,121.668,121.668,0,0,1,24.263-41.469,119.323,119.323,0,0,1,38.389-28.241q22.508-10.589,50.748-10.592,27.333,0,49.415,10.592a119.57,119.57,0,0,1,62.218,69.71,155.156,155.156,0,0,1,0,100.607" fill="#005293"/>
    <path id="Path_13" data-name="Path 13" d="M3411.743,2915.634a184.4,184.4,0,0,0,7.943,41.476,93.711,93.711,0,0,0,18.973,33.976q12.783,14.561,33.093,22.944,20.292,8.4,50.3,8.384,41.47,0,60.009-15.885a96.688,96.688,0,0,0,27.358-37.946h97.073a144.187,144.187,0,0,1-18.973,50.743,155.253,155.253,0,0,1-38.388,42.8q-23.828,18.532-55.6,29.563t-71.481,11.031q-52.078,0-90.454-16.767t-63.98-45.89q-25.606-29.121-38.388-68.833-12.8-39.711-12.8-84.718,0-45.876,13.678-85.6t39.271-68.834q25.585-29.122,63.539-45.448,37.933-16.318,86.483-16.326a196.923,196.923,0,0,1,74.57,14.12,188.706,188.706,0,0,1,60.892,39.27,181.193,181.193,0,0,1,40.594,58.686q14.562,33.547,14.561,73.246,0,10.59-.441,25.15a255.578,255.578,0,0,1-3.972,34.859Zm105.016-172.968q-45.008,0-75.011,25.593t-30.005,75.893h204.736q0-47.654-27.8-74.569t-71.922-26.917" fill="#005293"/>
    <path id="Path_14" data-name="Path 14" d="M3987.96,2770.024a183.868,183.868,0,0,0-18.973-3.53,169.96,169.96,0,0,0-18.973-.883q-61.781,0-94.426,35.74t-32.652,113.4V3092.13h-96.191V2680.893h96.191v66.186a104.1,104.1,0,0,1,19.856-26.916,149.916,149.916,0,0,1,30-22.945,160.908,160.908,0,0,1,37.064-15.884,144.106,144.106,0,0,1,40.154-5.736q22.938,0,37.946,6.177Z" fill="#005293"/>
    <path id="Path_15" data-name="Path 15" d="M4076.937,2577.826q0-31.51,21.708-53.314,21.693-21.775,52.192-21.79,31.394,0,53.114,21.79,21.7,21.8,21.708,53.314,0,30.6-21.708,52.387T4150.837,2652q-30.483,0-52.192-21.79t-21.708-52.387" fill="#ef6000"/>
    <rect id="Rectangle_1" data-name="Rectangle 1" width="100.688" height="409.967" transform="translate(4100.955 2677.455)" fill="#005293"/>
    <path id="Path_16" data-name="Path 16" d="M4217.726,2677.455h100.688v57.185q20.306-33.424,56.348-50.586,36.025-17.156,84.06-17.156,47.111,0,78.979,14.956t50.346,40.469a141.618,141.618,0,0,1,21.708,51.027q6,28.165,6,70.379v243.693H4515.17V2875.4a249.351,249.351,0,0,0-4.618-49.265q-4.633-22.868-15.242-39.15a77.192,77.192,0,0,0-28.636-25.953q-18.012-9.671-44.8-9.677-52.653,0-78.057,35.63t-25.4,88.415v212.022H4217.726Z" fill="#005293"/>
    <path id="Path_17" data-name="Path 17" d="M4631,2677.455h100.688v57.185q20.309-33.424,56.348-50.586t84.061-17.156q47.11,0,78.98,14.956t50.344,40.469a141.583,141.583,0,0,1,21.708,51.027q6,28.165,6,70.379v243.693H4928.442V2875.4a249.313,249.313,0,0,0-4.619-49.265q-4.633-22.868-15.241-39.15a77.18,77.18,0,0,0-28.637-25.953q-18.012-9.671-44.8-9.677-52.652,0-78.055,35.63t-25.4,88.415v212.022H4631Z" fill="#005293"/>
    <path id="Path_18" data-name="Path 18" d="M5261.795,3109.635q-51.228,0-92.369-17.937t-70.42-49.21a224.648,224.648,0,0,1-45.27-71.745q-16.009-40.464-16-86.461a234.052,234.052,0,0,1,16-86,223.757,223.757,0,0,1,45.27-72.2q29.26-31.26,70.42-49.211,41.154-17.934,92.369-17.935t92.825,17.935q41.6,17.937,71.335,49.211a220.44,220.44,0,0,1,45.727,72.2,234.345,234.345,0,0,1,16,86q0,46-16,86.461a221.3,221.3,0,0,1-45.727,71.745q-29.73,31.282-71.335,49.21-41.626,17.937-92.825,17.937m0-89.222q28.337,0,51.671-11.038a123.6,123.6,0,0,0,39.783-29.434,133,133,0,0,0,25.606-43.23,154.865,154.865,0,0,0,0-104.859,133.156,133.156,0,0,0-25.606-43.231,123.833,123.833,0,0,0-39.783-29.434q-23.322-11.035-51.671-11.037t-51.215,11.037a125.261,125.261,0,0,0-39.325,29.434,126.845,126.845,0,0,0-25.15,43.231,162.542,162.542,0,0,0,0,104.859,126.7,126.7,0,0,0,25.15,43.23,125.017,125.017,0,0,0,39.325,29.434q22.849,11.038,51.215,11.038" fill="#005293"/>
    <path id="Path_19" data-name="Path 19" d="M5535.89,2677.455l118.239,272.725,120.086-272.725h108.078l-194.91,409.967H5619.95l-192.14-409.967Z" fill="#005293"/>
    <path id="Path_20" data-name="Path 20" d="M6276.907,2677.455v409.966H6176.22V3032q-20.331,30.807-57.735,48.386t-75.285,17.6q-48.973,0-89.6-17.155-40.659-17.157-69.742-47.068a217.619,217.619,0,0,1-45.264-68.621q-16.171-38.7-16.165-82.7a213.406,213.406,0,0,1,16.165-82.258,216.649,216.649,0,0,1,45.264-69.06q29.1-29.9,69.742-47.068,40.638-17.154,89.6-17.155,37.865,0,75.285,17.595t57.735,48.386v-55.424Zm-228.165,335.188q28.622,0,52.192-10.558a124.638,124.638,0,0,0,40.183-28.152,126.006,126.006,0,0,0,25.864-41.349,140.706,140.706,0,0,0,0-100.293,126.14,126.14,0,0,0-25.864-41.347,124.84,124.84,0,0,0-40.183-28.153q-23.556-10.557-52.192-10.556t-51.729,10.556a126.176,126.176,0,0,0-39.721,28.153,119.994,119.994,0,0,0-25.4,41.347,147.652,147.652,0,0,0,0,100.293,119.874,119.874,0,0,0,25.4,41.349,125.967,125.967,0,0,0,39.721,28.152q23.079,10.557,51.729,10.558" fill="#005293"/>
    <path id="Path_21" data-name="Path 21" d="M6577.9,3087.421q-12.016,1.754-32.331,3.52-20.329,1.75-42.492,1.758a339.523,339.523,0,0,1-42.493-3.078,108.675,108.675,0,0,1-45.725-17.155q-21.716-14.062-36.487-43.108-14.791-29.032-14.781-80.938V2757.513h-72.975v-80.058h72.975V2553.409h100.688v124.046h98.841v80.058h-98.841v168.321q0,26.312,4.157,42.079,4.158,15.8,12.471,24.11a40.091,40.091,0,0,0,19.86,10.956,118.677,118.677,0,0,0,26.327,2.625H6554.8q15.7,0,23.094-2.639Z" fill="#005293"/>
    <path id="Path_22" data-name="Path 22" d="M6566.95,2577.169q0-31.534,21.709-53.356,21.693-21.792,52.191-21.807,31.393,0,53.116,21.807,21.694,21.813,21.708,53.356,0,30.623-21.708,52.43t-53.116,21.806q-30.483,0-52.191-21.806t-21.709-52.43" fill="#ef6000"/>
    <rect id="Rectangle_2" data-name="Rectangle 2" width="100.688" height="409.967" transform="translate(6590.969 2677.455)" fill="#005293"/>
    <path id="Path_23" data-name="Path 23" d="M6931.82,3097.979q-51.743,0-93.3-17.155t-71.129-47.068a213.611,213.611,0,0,1-45.725-68.621q-16.173-38.7-16.165-82.7a214.59,214.59,0,0,1,61.89-151.318q29.553-29.9,71.129-47.068,41.568-17.154,93.3-17.155t93.76,17.155q42.021,17.156,72.052,47.068a209.675,209.675,0,0,1,46.187,69.06,218.476,218.476,0,0,1,0,164.954,210.566,210.566,0,0,1-46.187,68.621q-30.029,29.92-72.052,47.068-42.047,17.154-93.76,17.155m0-85.336q28.622,0,52.191-10.558a124.656,124.656,0,0,0,40.184-28.152,126.023,126.023,0,0,0,25.864-41.349,140.727,140.727,0,0,0,0-100.293,126.157,126.157,0,0,0-25.864-41.347,124.858,124.858,0,0,0-40.184-28.153q-23.555-10.557-52.191-10.556t-51.73,10.556a126.175,126.175,0,0,0-39.72,28.153,119.99,119.99,0,0,0-25.4,41.347,147.66,147.66,0,0,0,0,100.293,119.87,119.87,0,0,0,25.4,41.349,125.966,125.966,0,0,0,39.72,28.152q23.079,10.557,51.73,10.558" fill="#005293"/>
    <path id="Path_24" data-name="Path 24" d="M7173.835,2677.455h100.688v57.185q20.309-33.424,56.349-50.586t84.061-17.156q47.109,0,78.979,14.956t50.345,40.469a141.565,141.565,0,0,1,21.707,51.027q6,28.165,6.005,70.379v243.693H7471.28V2875.4a249.315,249.315,0,0,0-4.618-49.265q-4.633-22.868-15.242-39.15a77.187,77.187,0,0,0-28.636-25.953q-18.014-9.671-44.8-9.677-52.653,0-78.055,35.63-25.419,35.631-25.4,88.415v212.022H7173.835Z" fill="#005293"/>
    <path id="Path_25" data-name="Path 25" d="M7812.586,2856.045q22.17,7.917,43.414,16.716a157.579,157.579,0,0,1,37.875,22,98.5,98.5,0,0,1,26.326,31.67q9.7,18.474,9.7,46.627,0,31.671-13.393,55.426a111.971,111.971,0,0,1-36.95,39.148q-23.555,15.4-54.962,22.873a286.908,286.908,0,0,1-66.511,7.479,224.69,224.69,0,0,1-66.509-9.677,174.068,174.068,0,0,1-55.885-28.593,138.383,138.383,0,0,1-38.8-46.627q-14.333-27.713-14.319-63.782h97.917q0,40.474,23.556,56.744,23.555,16.29,59.582,16.276,29.55,0,49.881-10.558,20.309-10.554,20.323-36.949,0-14.062-8.313-22.874-8.314-8.784-24.942-16.275a396.064,396.064,0,0,0-41.568-15.4q-24.94-7.919-59.119-20.236a401.074,401.074,0,0,1-41.108-17.155,143.61,143.61,0,0,1-32.792-21.555,80.268,80.268,0,0,1-21.246-30.791q-7.406-18.472-7.39-44.866,0-29.032,12.931-51.026a118.364,118.364,0,0,1,35.1-37.39q22.167-15.382,51.267-22.875a250.248,250.248,0,0,1,62.353-7.477,192.2,192.2,0,0,1,64.2,10.557q30.009,10.555,52.192,29.032a137.97,137.97,0,0,1,35.1,43.989,120.9,120.9,0,0,1,12.934,55.423h-97.916q0-29.032-16.166-46.186t-53.116-17.155q-25.872,0-43.878,11.435t-18.012,33.432q0,13.2,7.389,21.554,7.384,8.373,22.17,14.957,14.766,6.6,36.949,14.074t51.731,18.035" fill="#005293"/>
    <path id="Path_26" data-name="Path 26" d="M1502.31,2623.245s131.448,54.795,183.581,190.045V2600.109H1502.31Z" fill="#ef6000"/>
    <path id="Path_27" data-name="Path 27" d="M1685.891,2455.8a91.79,91.79,0,1,1-91.791-91.786,91.788,91.788,0,0,1,91.791,91.786" fill="#ef6000"/>
    <path id="Path_28" data-name="Path 28" d="M1218.369,3205.362c-81.333-34.8-134.539-126.767-124.056-215s83.991-165.133,171.327-178.823,180.817,37.275,216.725,118.474c53.193,120.288-16.779,279.973,49.7,386.953,35.559,57.224,109,82.515,140.228,87.575,10.475,1.7,11.282,2.694,11.282-7.6,0-5.009-.013,1.1,0,0,1.159-103.831,0,0,2.182-277.587.552-70.149.612-178.933-23.271-244.849-23.908-65.987-71.2-122.025-128.322-162.453-92.472-65.45-212.684-90.7-322.948-65.441s-208.463,101.325-258.624,203.223c-102.046,207.3,19.919,473.553,237.6,540.737,103.965,32.088,221.624,15.946,313.236-42.971-41.83-58.141-43.793-130.359-40.582-202.982-56.651,68.211-163.137,95.545-244.47,60.75" fill="#005293"/>
    <path id="Path_29" data-name="Path 29" d="M6229.242,3327.808a62.5,62.5,0,0,1-7.552,20.6,60.819,60.819,0,0,1-14.417,16.77,68.013,68.013,0,0,1-20.595,11.279,77.923,77.923,0,0,1-25.892,4.119q-17.462,0-31.09-5.884a70.184,70.184,0,0,1-23.145-15.79,67.559,67.559,0,0,1-14.516-23.048,77.088,77.088,0,0,1-5-27.657,75.763,75.763,0,0,1,4.9-27.069,68.607,68.607,0,0,1,36.876-38.935q13.337-5.981,30.207-5.983a82.949,82.949,0,0,1,28.344,4.511,65.732,65.732,0,0,1,21.184,12.162,57.449,57.449,0,0,1,13.829,18.045,71.525,71.525,0,0,1,6.669,22.165H6195.9a37.472,37.472,0,0,0-4.02-11.18,33.036,33.036,0,0,0-7.258-8.925,32.615,32.615,0,0,0-10.4-5.983,38.836,38.836,0,0,0-13.239-2.157,41.4,41.4,0,0,0-17.752,3.629,39.624,39.624,0,0,0-13.044,9.611,41.152,41.152,0,0,0-8.042,13.828,48.887,48.887,0,0,0-2.746,16.281,49.96,49.96,0,0,0,2.844,16.967,39.444,39.444,0,0,0,21.969,23.341,45.848,45.848,0,0,0,18.34,3.433,33.39,33.39,0,0,0,11.18-1.863,37.172,37.172,0,0,0,9.71-5.1,33.576,33.576,0,0,0,7.552-7.65,29.614,29.614,0,0,0,4.511-9.513Z" fill="#005293"/>
    <path id="Path_30" data-name="Path 30" d="M6285.97,3379.591a56.7,56.7,0,0,1-21.87-4.02,50.013,50.013,0,0,1-16.477-10.789,46.715,46.715,0,0,1-10.4-15.79,52.728,52.728,0,0,1,0-38.446,46.764,46.764,0,0,1,10.4-15.79,50.072,50.072,0,0,1,16.477-10.788,62.035,62.035,0,0,1,43.937,0,50.144,50.144,0,0,1,16.477,10.788,46.849,46.849,0,0,1,10.4,15.79,52.728,52.728,0,0,1,0,38.446,46.8,46.8,0,0,1-10.4,15.79,50.084,50.084,0,0,1-16.477,10.789,57.272,57.272,0,0,1-22.067,4.02m0-25.7a22.778,22.778,0,0,0,9.317-1.863,20.377,20.377,0,0,0,7.159-5.2,25.129,25.129,0,0,0,4.61-7.649,27.13,27.13,0,0,0,0-18.732,23.691,23.691,0,0,0-4.61-7.651,22.219,22.219,0,0,0-7.159-5.2,21.856,21.856,0,0,0-9.317-1.962,21.2,21.2,0,0,0-9.22,1.962,22.023,22.023,0,0,0-11.573,12.848,28.759,28.759,0,0,0,0,18.732,23.684,23.684,0,0,0,4.512,7.649,20.618,20.618,0,0,0,7.061,5.2,22.091,22.091,0,0,0,9.22,1.863" fill="#005293"/>
    <path id="Path_31" data-name="Path 31" d="M6344.564,3282.5h30.011v13.73a27.383,27.383,0,0,1,11.867-11.867q7.944-4.215,19.124-4.217a40.418,40.418,0,0,1,15.889,2.844,25.838,25.838,0,0,1,10.591,7.945,28.734,28.734,0,0,1,5.983,12.651,87.784,87.784,0,0,1,1.471,17.359v56.1h-30.011v-48.449q0-10.2-3.628-16.574t-13.044-6.375q-9.223,0-13.731,6.472t-4.511,17.458v47.468h-30.011Z" fill="#005293"/>
    <path id="Path_32" data-name="Path 32" d="M6449.626,3282.5h30.011v13.73a27.383,27.383,0,0,1,11.867-11.867q7.944-4.215,19.124-4.217a40.418,40.418,0,0,1,15.889,2.844,25.838,25.838,0,0,1,10.591,7.945,28.734,28.734,0,0,1,5.983,12.651,87.784,87.784,0,0,1,1.471,17.359v56.1h-30.011v-48.449q0-10.2-3.628-16.574t-13.044-6.375q-9.225,0-13.731,6.472t-4.511,17.458v47.468h-30.011Z" fill="#005293"/>
    <path id="Path_33" data-name="Path 33" d="M6582.422,3337.027a35.777,35.777,0,0,0,1.275,8.141,16.561,16.561,0,0,0,9.906,11.181,25.15,25.15,0,0,0,9.807,1.667q7.844,0,11.867-3.139a16.435,16.435,0,0,0,5.59-7.65h29.423a32.842,32.842,0,0,1-4.609,12.554,36.792,36.792,0,0,1-9.612,10.3,47.509,47.509,0,0,1-14.123,6.963,67.493,67.493,0,0,1-40.211-1.079,43.476,43.476,0,0,1-15.985-10.3,44.084,44.084,0,0,1-9.808-15.79,58.108,58.108,0,0,1-3.335-20.106,57.114,57.114,0,0,1,3.237-19.418,44.812,44.812,0,0,1,9.611-15.79,45.47,45.47,0,0,1,15.692-10.69,55.531,55.531,0,0,1,21.675-3.923,54.289,54.289,0,0,1,20.1,3.53,48.724,48.724,0,0,1,15.3,9.415,40.917,40.917,0,0,1,13.24,30.208q0,2.941-.1,6.277a52.4,52.4,0,0,1-.883,7.649Zm20.2-37.072q-8.827,0-14.516,5.1t-5.688,14.712h39.623q0-9.219-5.4-14.516t-14.024-5.3" fill="#005293"/>
    <path id="Path_34" data-name="Path 34" d="M6728.222,3319.57a17.1,17.1,0,0,0-5.2-10.2q-4.221-3.921-13.437-3.923a21.023,21.023,0,0,0-9.316,1.962,18.087,18.087,0,0,0-6.571,5.3,23.185,23.185,0,0,0-3.825,7.748,34.682,34.682,0,0,0,0,18.634,22.207,22.207,0,0,0,3.922,7.748,18.6,18.6,0,0,0,6.866,5.3,23.788,23.788,0,0,0,10.1,1.961q7.844,0,11.769-3.236a19.459,19.459,0,0,0,5.884-9.317h30.01a48.363,48.363,0,0,1-4.707,15,38.054,38.054,0,0,1-9.611,12.063,45.228,45.228,0,0,1-14.81,8.042,62.185,62.185,0,0,1-19.908,2.942,54.585,54.585,0,0,1-21.87-4.119,47.622,47.622,0,0,1-15.988-10.984,45.061,45.061,0,0,1-9.709-15.888,56.385,56.385,0,0,1,0-37.661,45.133,45.133,0,0,1,9.709-15.888,47.668,47.668,0,0,1,15.988-10.984,54.589,54.589,0,0,1,21.87-4.119,58.81,58.81,0,0,1,20.792,3.334,45.382,45.382,0,0,1,14.81,8.827,38.714,38.714,0,0,1,9.217,12.651,47.515,47.515,0,0,1,4.022,14.81Z" fill="#005293"/>
    <path id="Path_35" data-name="Path 35" d="M6830.691,3377.042q-3.339.59-8.337,1.079t-11.671.49a84.921,84.921,0,0,1-11.18-.785,26.169,26.169,0,0,1-10.886-4.02,23.658,23.658,0,0,1-8.239-10q-3.237-6.768-3.236-18.536v-40.407h-14.907V3282.5h14.907v-28.05h29.815v28.05h21.576v22.361h-21.576v33.67a29.06,29.06,0,0,0,.98,8.419,10.91,10.91,0,0,0,2.746,4.8A9.134,9.134,0,0,0,6814.8,3354a20.971,20.971,0,0,0,5.1.586h5.687a23.216,23.216,0,0,0,5.1-.49Z" fill="#005293"/>
    <path id="Path_36" data-name="Path 36" d="M6835.46,3251.114a18.386,18.386,0,0,1,5.492-13.534,18.626,18.626,0,0,1,13.731-5.493,19.713,19.713,0,0,1,13.828,5.493,17.887,17.887,0,0,1,4.119,6.08,19.187,19.187,0,0,1,1.472,7.454,18.453,18.453,0,0,1-1.472,7.355,19.251,19.251,0,0,1-4.119,6.081,18.933,18.933,0,0,1-6.179,4.118,19.662,19.662,0,0,1-7.649,1.472,18.948,18.948,0,0,1-7.552-1.472,19.432,19.432,0,0,1-10.2-10.2,18.453,18.453,0,0,1-1.471-7.355m4.315,31.384h30.011v94.544h-30.011Z" fill="#005293"/>
    <path id="Path_37" data-name="Path 37" d="M6881.283,3282.5h30.011v13.73a27.387,27.387,0,0,1,11.867-11.867q7.944-4.215,19.124-4.217a40.414,40.414,0,0,1,15.889,2.844,25.839,25.839,0,0,1,10.591,7.945,28.74,28.74,0,0,1,5.983,12.651,87.784,87.784,0,0,1,1.471,17.359v56.1h-30.011v-48.449q0-10.2-3.628-16.574t-13.044-6.375q-9.223,0-13.731,6.472t-4.511,17.458v47.468h-30.011Z" fill="#005293"/>
    <path id="Path_38" data-name="Path 38" d="M7089.6,3376.453q0,12.945-3.727,21.478a35.506,35.506,0,0,1-11.181,14.221,46.107,46.107,0,0,1-15.887,7.65,85.024,85.024,0,0,1-22.362,2.55q-13.341,0-22.262-2.942a42.747,42.747,0,0,1-14.81-8.042,39.084,39.084,0,0,1-9.807-12.26,36.384,36.384,0,0,1-3.923-14.809h30.01a17.211,17.211,0,0,0,5.788,10.985q5.193,4.9,15,4.9,10.593,0,16.87-5.1t6.276-16.28v-15.889a29.177,29.177,0,0,1-11.769,10.593,36.157,36.157,0,0,1-17.065,4.119,48.519,48.519,0,0,1-18.732-3.531,42.2,42.2,0,0,1-14.613-9.905,45.918,45.918,0,0,1-9.513-15.1,52.333,52.333,0,0,1-3.433-19.321,58.564,58.564,0,0,1,3.236-19.713,44.207,44.207,0,0,1,42.663-29.912,36.821,36.821,0,0,1,17.163,4.217,27.471,27.471,0,0,1,12.063,11.671V3282.5H7089.6Zm-52.764-70.81a21.194,21.194,0,0,0-9.219,1.962,21.836,21.836,0,0,0-7.061,5.3,23.67,23.67,0,0,0-4.512,7.649,26.74,26.74,0,0,0-1.569,9.219,27.554,27.554,0,0,0,1.569,9.317,22.019,22.019,0,0,0,11.573,12.848,21.152,21.152,0,0,0,9.219,1.962,21.818,21.818,0,0,0,9.317-1.962,22.2,22.2,0,0,0,7.16-5.2,23.7,23.7,0,0,0,4.609-7.651,26.194,26.194,0,0,0,1.667-9.317,25.317,25.317,0,0,0-6.276-16.868,21.567,21.567,0,0,0-7.16-5.3,21.862,21.862,0,0,0-9.317-1.962" fill="#005293"/>
    <path id="Path_39" data-name="Path 39" d="M7193.354,3267.2h-30.991v-27.461h93.955V3267.2h-31.188v109.844h-31.776Z" fill="#005293"/>
    <path id="Path_40" data-name="Path 40" d="M7266.008,3239.737h29.03v56.491a28.353,28.353,0,0,1,11.769-11.769q7.842-4.311,18.83-4.315,9.218,0,15.5,2.844a26.358,26.358,0,0,1,10.2,7.944,29.7,29.7,0,0,1,6.08,12.749,83.925,83.925,0,0,1,1.569,17.458v55.9h-29.03v-48.45q0-10.2-3.629-16.574t-13.044-6.375q-9.222,0-13.731,6.473t-4.51,17.458v47.468h-29.03Z" fill="#005293"/>
    <path id="Path_41" data-name="Path 41" d="M7395.84,3337.027a35.777,35.777,0,0,0,1.275,8.141,16.559,16.559,0,0,0,9.906,11.181,25.15,25.15,0,0,0,9.807,1.667q7.844,0,11.867-3.139a16.435,16.435,0,0,0,5.59-7.65h29.423a32.842,32.842,0,0,1-4.609,12.554,36.792,36.792,0,0,1-9.612,10.3,47.509,47.509,0,0,1-14.123,6.963,67.493,67.493,0,0,1-40.211-1.079,43.488,43.488,0,0,1-15.986-10.3,44.1,44.1,0,0,1-9.807-15.79,58.108,58.108,0,0,1-3.335-20.106,57.09,57.09,0,0,1,3.237-19.418,44.812,44.812,0,0,1,9.611-15.79,45.47,45.47,0,0,1,15.692-10.69,55.531,55.531,0,0,1,21.675-3.923,54.292,54.292,0,0,1,20.1,3.53,48.728,48.728,0,0,1,15.3,9.415,40.917,40.917,0,0,1,13.24,30.208q0,2.941-.1,6.277a52.329,52.329,0,0,1-.883,7.649Zm20.2-37.072q-8.827,0-14.516,5.1t-5.688,14.712h39.623q0-9.219-5.4-14.516t-14.024-5.3" fill="#005293"/>
    <path id="Path_42" data-name="Path 42" d="M7587.75,3239.737q17.064,0,30.3,5.786a67.872,67.872,0,0,1,22.362,15.4,66.836,66.836,0,0,1,13.927,21.968,69.816,69.816,0,0,1,4.805,25.5,71.023,71.023,0,0,1-4.708,25.5,65.443,65.443,0,0,1-13.828,21.969,67.557,67.557,0,0,1-22.459,15.4q-13.341,5.787-30.4,5.786h-50.411v-137.3Zm-18.635,27.461v82.383h17.065a41.053,41.053,0,0,0,17.164-3.433,38.053,38.053,0,0,0,12.75-9.219,40.949,40.949,0,0,0,7.943-13.142,44.266,44.266,0,0,0,0-30.7,40.772,40.772,0,0,0-7.943-13.241,38.145,38.145,0,0,0-12.75-9.218,41.084,41.084,0,0,0-17.164-3.433Z" fill="#005293"/>
    <path id="Path_43" data-name="Path 43" d="M7717.07,3379.591a56.709,56.709,0,0,1-21.87-4.02,50.034,50.034,0,0,1-16.477-10.789,46.729,46.729,0,0,1-10.4-15.79,52.728,52.728,0,0,1,0-38.446,46.779,46.779,0,0,1,10.4-15.79,50.093,50.093,0,0,1,16.477-10.788,62.035,62.035,0,0,1,43.937,0,50.116,50.116,0,0,1,16.477,10.788,46.805,46.805,0,0,1,10.4,15.79,52.722,52.722,0,0,1,0,38.446,46.756,46.756,0,0,1-10.4,15.79,50.057,50.057,0,0,1-16.477,10.789,57.269,57.269,0,0,1-22.067,4.02m0-25.7a22.779,22.779,0,0,0,9.317-1.863,20.38,20.38,0,0,0,7.16-5.2,25.126,25.126,0,0,0,4.609-7.649,27.122,27.122,0,0,0,0-18.732,23.688,23.688,0,0,0-4.609-7.651,22.223,22.223,0,0,0-7.16-5.2,21.856,21.856,0,0,0-9.317-1.962,21.2,21.2,0,0,0-9.219,1.962,22.023,22.023,0,0,0-11.573,12.848,28.759,28.759,0,0,0,0,18.732,23.649,23.649,0,0,0,4.512,7.649,20.618,20.618,0,0,0,7.061,5.2,22.086,22.086,0,0,0,9.219,1.863" fill="#005293"/>
    <path id="Path_44" data-name="Path 44" d="M7837.706,3377.042q-3.339.59-8.337,1.079t-11.671.49a84.921,84.921,0,0,1-11.18-.785,26.171,26.171,0,0,1-10.886-4.02,23.654,23.654,0,0,1-8.239-10q-3.237-6.768-3.236-18.536v-40.407H7769.25V3282.5h14.907v-28.05h29.815v28.05h21.576v22.361h-21.576v33.67a29.043,29.043,0,0,0,.98,8.419,10.91,10.91,0,0,0,2.746,4.8,9.134,9.134,0,0,0,4.119,2.252,20.971,20.971,0,0,0,5.1.586h5.687a23.216,23.216,0,0,0,5.1-.49Z" fill="#005293"/>
    <path id="Path_45" data-name="Path 45" d="M7898.416,3321.335q6.275,1.766,11.769,3.825a39.376,39.376,0,0,1,9.611,5.1,22.874,22.874,0,0,1,6.571,7.553,23.659,23.659,0,0,1,2.451,11.375q0,8.438-3.334,14.221a26.466,26.466,0,0,1-9.218,9.415,41.309,41.309,0,0,1-13.633,5.2,83.541,83.541,0,0,1-16.574,1.57q-20.207,0-31.875-8.826t-11.671-25.3h29.423q0,7.457,4.216,10.69t10.887,3.237a17.187,17.187,0,0,0,8.925-2.06q3.429-2.06,3.432-6.767a6.434,6.434,0,0,0-1.471-4.415,14.323,14.323,0,0,0-4.511-3.137,56.484,56.484,0,0,0-7.847-2.943q-4.808-1.47-11.474-3.628-5.884-1.767-11.181-3.825a40.62,40.62,0,0,1-9.316-5,21.288,21.288,0,0,1-6.375-7.455,24.427,24.427,0,0,1-2.354-11.376q0-14.709,11.278-21.771t30.5-7.062a59.69,59.69,0,0,1,17.949,2.451,35.858,35.858,0,0,1,12.749,6.768,28.1,28.1,0,0,1,7.551,10.2,31.26,31.26,0,0,1,2.55,12.554h-29.618q0-5.884-3.04-9.12t-9.317-3.237a14.62,14.62,0,0,0-7.846,2.059,6.961,6.961,0,0,0-3.335,6.375,5.9,5.9,0,0,0,1.569,4.218,14.351,14.351,0,0,0,4.61,3.04,62.941,62.941,0,0,0,7.552,2.745q4.509,1.375,10.4,3.335" fill="#005293"/>
  </g>
</svg>
