<?xml version="1.0" encoding="utf-8"?>
<!-- Generator: Adobe Illustrator 24.0.2, SVG Export Plug-In . SVG Version: 6.00 Build 0)  -->
<svg version="1.1" id="Layer_2" xmlns="http://www.w3.org/2000/svg" xmlns:xlink="http://www.w3.org/1999/xlink" x="0px" y="0px"
	 viewBox="0 0 8258 2043.06" style="enable-background:new 0 0 8258 2043.06;" xml:space="preserve">
<style type="text/css">
	.st0{fill:#005293;}
	.st1{fill:#EF6000;}
	.st2{fill:#FFFFFF;}
</style>
<g>
	<path class="st0" d="M2106.86,880v386.82h-90.48v-52.3c-12.18,19.38-29.47,34.59-51.88,45.65c-22.41,11.06-44.97,16.6-67.65,16.6
		c-29.34,0-56.17-5.4-80.52-16.19c-24.36-10.79-45.24-25.59-62.67-44.41c-17.43-18.81-31-40.39-40.67-64.75
		c-9.69-24.35-14.53-50.35-14.53-78.03c0-27.11,4.84-52.98,14.53-77.61c9.68-24.62,23.24-46.34,40.67-65.16
		c17.43-18.81,38.31-33.62,62.67-44.41c24.34-10.79,51.18-16.19,80.52-16.19c22.68,0,45.24,5.54,67.65,16.6
		c22.41,11.08,39.7,26.29,51.88,45.65V880H2106.86z M1901.83,1196.26c17.15,0,32.79-3.32,46.9-9.96
		c14.11-6.64,26.15-15.49,36.11-26.56c9.96-11.06,17.7-24.07,23.24-39.01c5.53-14.94,8.3-30.71,8.3-47.31s-2.78-32.37-8.3-47.31
		c-5.54-14.94-13.28-27.94-23.24-39.01c-9.96-11.06-22-19.92-36.11-26.56c-14.11-6.64-29.75-9.96-46.9-9.96
		c-17.16,0-32.66,3.32-46.48,9.96c-13.84,6.64-25.73,15.5-35.69,26.56c-9.96,11.08-17.57,24.07-22.83,39.01
		c-5.27,14.94-7.89,30.71-7.89,47.31s2.62,32.37,7.89,47.31c5.25,14.94,12.87,27.95,22.83,39.01c9.96,11.08,21.85,19.92,35.69,26.56
		C1869.17,1192.94,1884.67,1196.26,1901.83,1196.26z"/>
	<path class="st0" d="M2610.08,1266.82v-216.65c0-30.99-5.68-55.47-17.02-73.46c-11.35-17.98-29.75-26.98-55.2-26.98
		c-11.62,0-22.28,1.94-31.96,5.81c-9.69,3.88-18.26,10.52-25.73,19.92c-7.47,9.42-13.28,21.72-17.43,36.94
		c-4.15,15.23-6.23,34.45-6.23,57.69v196.73h-90.48v-217.48c0-30.99-5.4-55.33-16.19-73.05c-10.79-17.7-28.92-26.56-54.37-26.56
		c-11.62,0-22.41,1.94-32.37,5.81c-9.96,3.88-18.68,10.52-26.15,19.92c-7.47,9.42-13.42,21.72-17.85,36.94
		c-4.44,15.23-6.64,34.45-6.64,57.69v196.73h-90.48V880h90.48v53.95c8.3-17.7,22-32.79,41.09-45.24
		c19.09-12.45,41.36-18.68,66.82-18.68c35.41,0,62.53,6.64,81.35,19.92c18.81,13.28,32.37,29.61,40.67,48.97
		c9.4-19.36,24.62-35.69,45.65-48.97c21.02-13.28,45.37-19.92,73.05-19.92c28.77,0,52.29,4.57,70.56,13.7
		c18.26,9.13,32.5,20.89,42.75,35.28c10.23,14.4,17.15,30.58,20.75,48.56c3.59,17.99,5.4,36.11,5.4,54.37v244.87H2610.08z"/>
	<path class="st0" d="M3079.71,1073.41c0-29.69,4.5-57.81,13.38-83.55c1.17-3.38,2.4-6.71,3.7-9.99
		c-8.86-18.17-20.08-34.59-33.65-49.24c-17.44-18.8-38.33-33.61-62.67-44.41c-24.35-10.79-51.2-16.18-80.52-16.18
		c-22.69,0-45.24,5.54-67.65,16.6c-22.41,11.08-39.71,26.3-51.88,45.65V685.76h-90.48v581.06h90.48v-52.29
		c12.16,19.38,29.46,34.6,51.88,45.65c22.41,11.07,44.96,16.6,67.65,16.6c29.32,0,56.17-5.39,80.52-16.18
		c24.35-10.79,45.24-25.59,62.67-44.41c13.39-14.46,24.5-30.54,33.31-48.27c-1.52-3.91-2.94-7.9-4.25-11.97
		C3083.91,1130.25,3079.71,1102.48,3079.71,1073.41z M3019.98,1120.72c-5.26,14.94-12.87,27.95-22.83,39.02
		c-9.95,11.08-21.87,19.92-35.69,26.56c-13.83,6.64-29.34,9.95-46.48,9.95c-17.72,0-33.62-3.31-47.73-9.95
		c-14.11-6.65-26.15-15.49-36.11-26.56c-9.95-11.07-17.57-24.08-22.82-39.02c-5.26-14.94-7.88-30.71-7.88-47.32
		c0-16.6,2.62-32.37,7.88-47.32c5.26-14.94,12.87-27.93,22.82-39.01c9.96-11.07,22-19.93,36.11-26.56
		c14.11-6.64,30.02-9.96,47.73-9.96c17.14,0,32.65,3.32,46.48,9.96c13.83,6.64,25.74,15.5,35.69,26.56
		c9.96,11.08,17.57,24.07,22.83,39.01c5.26,14.95,7.88,30.71,7.88,47.32C3027.86,1090.01,3025.23,1105.78,3019.98,1120.72z"/>
	<path class="st0" d="M3178.64,1100.8c1.1,13.84,3.59,26.85,7.47,39.01c3.86,12.18,9.82,22.83,17.85,31.96
		c8.02,9.13,18.39,16.33,31.13,21.58c12.72,5.27,28.5,7.89,47.31,7.89c26.01,0,44.82-4.98,56.45-14.94
		c11.62-9.96,20.2-21.85,25.73-35.69h91.31c-2.78,16.6-8.72,32.52-17.85,47.73c-9.13,15.23-21.17,28.64-36.11,40.26
		c-14.94,11.62-32.37,20.89-52.3,27.81c-19.92,6.91-42.33,10.38-67.24,10.38c-32.66,0-61.01-5.27-85.08-15.77
		s-44.14-24.9-60.18-43.16c-16.06-18.26-28.09-39.84-36.11-64.75c-8.03-24.9-12.04-51.47-12.04-79.69
		c0-28.77,4.28-55.62,12.87-80.52c8.57-24.9,20.88-46.49,36.94-64.75c16.04-18.26,35.97-32.5,59.77-42.75
		c23.79-10.23,50.91-15.36,81.35-15.36c24.9,0,48.28,4.44,70.14,13.28c21.85,8.86,40.95,21.17,57.28,36.94
		c16.32,15.77,29.05,34.18,38.18,55.2c9.13,21.04,13.7,43.99,13.7,68.9c0,6.64-0.14,14.53-0.42,23.66
		c-0.29,9.13-1.53,20.07-3.74,32.79H3178.64z M3277.42,938.1c-28.22,0-51.75,8.03-70.56,24.07c-18.82,16.06-28.22,39.84-28.22,71.39
		h192.58c0-29.88-8.72-53.25-26.15-70.14C3327.64,946.55,3305.09,938.1,3277.42,938.1z"/>
	<path class="st0" d="M3720.65,963.84c-7.2-1.66-13.15-2.76-17.85-3.32c-4.71-0.54-10.66-0.83-17.85-0.83
		c-38.74,0-68.35,11.21-88.82,33.62c-20.48,22.41-30.71,57.98-30.71,106.67v166.85h-90.48V880h90.48v62.26
		c4.42-8.85,10.65-17.29,18.68-25.32c8.02-8.02,17.43-15.21,28.22-21.58c10.79-6.36,22.41-11.34,34.86-14.94
		c12.45-3.59,25.03-5.4,37.77-5.4c14.38,0,26.28,1.95,35.69,5.81V963.84z"/>
	<path class="st1" d="M3804.34,783.05c0-19.76,6.8-36.48,20.42-50.15c13.6-13.65,29.98-20.5,49.09-20.5
		c19.69,0,36.34,6.84,49.96,20.5c13.6,13.67,20.42,30.39,20.42,50.15c0,19.19-6.81,35.62-20.42,49.28
		c-13.62,13.67-30.27,20.5-49.96,20.5c-19.12,0-35.49-6.83-49.09-20.5C3811.14,818.67,3804.34,802.24,3804.34,783.05z"/>
	<rect x="3826.93" y="876.77" class="st0" width="94.71" height="385.62"/>
	<path class="st0" d="M3936.77,876.77h94.71v53.79c12.73-20.96,30.41-36.82,53-47.58c22.59-10.76,48.94-16.14,79.07-16.14
		c29.54,0,54.31,4.69,74.29,14.07c19.99,9.39,35.76,22.07,47.36,38.07c9.84,14.35,16.65,30.35,20.42,48
		c3.76,17.66,5.65,39.72,5.65,66.2v229.22h-94.71v-199.43c0-16.55-1.45-31.99-4.34-46.34c-2.91-14.34-7.68-26.61-14.34-36.82
		c-6.67-10.2-15.64-18.33-26.94-24.41c-11.3-6.06-25.35-9.1-42.14-9.1c-33.02,0-57.5,11.17-73.42,33.51
		c-15.94,22.34-23.89,50.06-23.89,83.17v199.43h-94.71V876.77z"/>
	<path class="st0" d="M4325.5,876.77h94.71v53.79c12.73-20.96,30.41-36.82,53-47.58c22.59-10.76,48.94-16.14,79.07-16.14
		c29.54,0,54.31,4.69,74.29,14.07c19.98,9.39,35.76,22.07,47.35,38.07c9.84,14.35,16.65,30.35,20.42,48
		c3.76,17.66,5.65,39.72,5.65,66.2v229.22h-94.71v-199.43c0-16.55-1.45-31.99-4.34-46.34c-2.91-14.34-7.68-26.61-14.34-36.82
		c-6.67-10.2-15.64-18.33-26.94-24.41c-11.3-6.06-25.35-9.1-42.14-9.1c-33.02,0-57.5,11.17-73.42,33.51
		c-15.94,22.34-23.89,50.06-23.89,83.17v199.43h-94.71V876.77z"/>
	<path class="st0" d="M4918.84,1283.28c-32.12,0-61.08-5.62-86.88-16.87c-25.81-11.25-47.89-26.67-66.24-46.29
		c-18.36-19.6-32.56-42.1-42.58-67.48c-10.04-25.37-15.05-52.48-15.05-81.33c0-28.25,5.01-55.22,15.05-80.9
		c10.03-25.66,24.22-48.3,42.58-67.92c18.35-19.6,40.43-35.04,66.24-46.29c25.81-11.25,54.76-16.87,86.88-16.87
		c32.11,0,61.21,5.62,87.31,16.87c26.09,11.25,48.46,26.69,67.1,46.29c18.63,19.61,32.97,42.26,43.01,67.92
		c10.03,25.67,15.05,52.64,15.05,80.9c0,28.85-5.03,55.95-15.05,81.33c-10.04,25.39-24.38,47.88-43.01,67.48
		c-18.64,19.62-41.01,35.04-67.1,46.29C4980.05,1277.66,4950.95,1283.28,4918.84,1283.28z M4918.84,1199.36
		c17.77,0,33.98-3.46,48.6-10.38c14.62-6.92,27.1-16.14,37.42-27.69c10.32-11.53,18.35-25.09,24.09-40.66
		c5.73-15.57,8.6-32.01,8.6-49.32c0-17.3-2.88-33.74-8.6-49.32c-5.74-15.57-13.76-29.12-24.09-40.66
		c-10.32-11.53-22.8-20.76-37.42-27.69c-14.62-6.92-30.83-10.38-48.6-10.38c-17.78,0-33.84,3.46-48.17,10.38
		c-14.34,6.92-26.67,16.15-36.99,27.69c-10.32,11.54-18.21,25.09-23.66,40.66c-5.46,15.57-8.17,32.01-8.17,49.32
		c0,17.3,2.71,33.74,8.17,49.32c5.44,15.57,13.33,29.13,23.66,40.66c10.32,11.54,22.65,20.76,36.99,27.69
		C4884.99,1195.9,4901.06,1199.36,4918.84,1199.36z"/>
	<path class="st0" d="M5176.66,876.77l111.22,256.53l112.96-256.53h101.66l-183.34,385.62h-63.43L5075,876.77H5176.66z"/>
	<path class="st0" d="M5873.68,876.77v385.62h-94.71v-52.13c-12.75,19.32-30.85,34.48-54.31,45.51
		c-23.46,11.03-47.07,16.55-70.81,16.55c-30.71,0-58.8-5.38-84.28-16.14c-25.5-10.76-47.35-25.51-65.6-44.27
		c-18.25-18.75-32.45-40.26-42.58-64.55c-10.14-24.27-15.21-50.19-15.21-77.79c0-27.02,5.06-52.82,15.21-77.37
		c10.13-24.54,24.33-46.2,42.58-64.96c18.25-18.75,40.1-33.52,65.6-44.27c25.48-10.76,53.57-16.14,84.28-16.14
		c23.75,0,47.35,5.52,70.81,16.55c23.46,11.04,41.56,26.21,54.31,45.51v-52.13H5873.68z M5659.06,1192.05
		c17.95,0,34.32-3.31,49.09-9.93s27.37-15.44,37.8-26.48c10.43-11.03,18.53-24,24.33-38.89c5.78-14.9,8.69-30.62,8.69-47.17
		c0-16.55-2.91-32.27-8.69-47.17c-5.8-14.9-13.9-27.85-24.33-38.89c-10.43-11.03-23.03-19.86-37.8-26.48
		c-14.77-6.62-31.14-9.93-49.09-9.93c-17.96,0-34.19,3.31-48.66,9.93c-14.49,6.62-26.94,15.45-37.36,26.48
		c-10.43,11.04-18.4,24-23.89,38.89c-5.51,14.9-8.25,30.62-8.25,47.17c0,16.55,2.74,32.27,8.25,47.17
		c5.5,14.9,13.47,27.86,23.89,38.89c10.43,11.04,22.88,19.86,37.36,26.48C5624.87,1188.74,5641.1,1192.05,5659.06,1192.05z"/>
	<path class="st0" d="M6156.79,1262.39c-7.54,1.1-17.68,2.2-30.41,3.31c-12.75,1.1-26.07,1.65-39.97,1.65
		c-11.59,0-24.91-0.97-39.97-2.9c-15.07-1.94-29.41-7.31-43.01-16.14c-13.62-8.82-25.06-22.34-34.32-40.55
		c-9.27-18.21-13.9-43.57-13.9-76.13V952.07h-68.64v-75.3h68.64V760.09h94.71v116.68h92.97v75.3h-92.97v158.33
		c0,16.5,1.3,29.69,3.91,39.58c2.61,9.9,6.52,17.46,11.73,22.68c5.21,5.22,11.43,8.65,18.68,10.3c7.24,1.66,15.49,2.47,24.76,2.47
		c7.52,0,16.21,0,26.07,0c9.84,0,17.08-0.83,21.72-2.48V1262.39z"/>
	<path class="st1" d="M6146.5,782.43c0-19.78,6.8-36.51,20.42-50.19c13.6-13.67,29.98-20.51,49.09-20.51
		c19.69,0,36.34,6.85,49.96,20.51c13.6,13.68,20.42,30.41,20.42,50.19c0,19.2-6.81,35.65-20.42,49.32
		c-13.62,13.68-30.27,20.51-49.96,20.51c-19.12,0-35.49-6.83-49.09-20.51C6153.3,818.08,6146.5,801.64,6146.5,782.43z"/>
	<rect x="6169.09" y="876.77" class="st0" width="94.71" height="385.62"/>
	<path class="st0" d="M6489.7,1272.32c-32.45,0-61.69-5.38-87.76-16.14c-26.07-10.76-48.37-25.51-66.91-44.27
		c-18.55-18.75-32.88-40.26-43.01-64.55c-10.14-24.27-15.21-50.19-15.21-77.79c0-27.02,5.06-52.82,15.21-77.37
		c10.13-24.54,24.46-46.2,43.01-64.96c18.53-18.75,40.84-33.52,66.91-44.27c26.07-10.76,55.31-16.14,87.76-16.14
		c32.43,0,61.83,5.38,88.19,16.14c26.35,10.76,48.94,25.52,67.77,44.27c18.82,18.76,33.3,40.42,43.44,64.96
		c10.13,24.55,15.21,50.35,15.21,77.37c0,27.59-5.08,53.52-15.21,77.79c-10.14,24.28-24.63,45.8-43.44,64.55
		c-18.83,18.76-41.42,33.51-67.77,44.27C6551.53,1266.94,6522.13,1272.32,6489.7,1272.32z M6489.7,1192.05
		c17.95,0,34.32-3.31,49.09-9.93c14.77-6.62,27.37-15.44,37.8-26.48c10.43-11.03,18.53-24,24.33-38.89
		c5.78-14.9,8.69-30.62,8.69-47.17c0-16.55-2.9-32.27-8.69-47.17c-5.8-14.9-13.9-27.85-24.33-38.89
		c-10.43-11.03-23.03-19.86-37.8-26.48c-14.77-6.62-31.15-9.93-49.09-9.93c-17.96,0-34.19,3.31-48.66,9.93
		c-14.49,6.62-26.94,15.45-37.36,26.48c-10.43,11.04-18.4,24-23.89,38.89c-5.51,14.9-8.25,30.62-8.25,47.17
		c0,16.55,2.74,32.27,8.25,47.17c5.5,14.9,13.47,27.86,23.89,38.89c10.43,11.04,22.88,19.86,37.36,26.48
		C6455.51,1188.74,6471.74,1192.05,6489.7,1192.05z"/>
	<path class="st0" d="M6717.34,876.77h94.71v53.79c12.73-20.96,30.41-36.82,53-47.58c22.59-10.76,48.94-16.14,79.07-16.14
		c29.54,0,54.31,4.69,74.29,14.07c19.98,9.39,35.76,22.07,47.35,38.07c9.84,14.35,16.65,30.35,20.42,48
		c3.76,17.66,5.65,39.72,5.65,66.2v229.22h-94.71v-199.43c0-16.55-1.45-31.99-4.34-46.34c-2.91-14.34-7.68-26.61-14.34-36.82
		c-6.67-10.2-15.64-18.33-26.94-24.41c-11.3-6.06-25.35-9.1-42.14-9.1c-33.02,0-57.5,11.17-73.42,33.51
		c-15.94,22.34-23.89,50.06-23.89,83.17v199.43h-94.71V876.77z"/>
	<path class="st0" d="M7316.52,1044.75c13.9,4.96,27.51,10.21,40.84,15.72c13.32,5.52,25.2,12.41,35.63,20.69
		s18.68,18.2,24.76,29.79c6.08,11.59,9.12,26.21,9.12,43.86c0,19.86-4.21,37.24-12.6,52.13c-8.4,14.89-19.98,27.18-34.76,36.82
		c-14.77,9.66-32.01,16.83-51.7,21.51c-19.7,4.68-40.55,7.03-62.56,7.03c-22.02,0-42.87-3.04-62.56-9.1
		c-19.7-6.06-37.23-15.02-52.57-26.89c-15.35-11.86-27.52-26.48-36.49-43.86c-8.99-17.38-13.47-37.37-13.47-59.99h92.1
		c0,25.38,7.39,43.17,22.16,53.38c14.77,10.21,33.45,15.31,56.04,15.31c18.53,0,34.17-3.31,46.92-9.93
		c12.74-6.62,19.12-18.2,19.12-34.76c0-8.82-2.61-15.99-7.82-21.51c-5.21-5.51-13.03-10.62-23.46-15.31
		c-10.43-4.68-23.46-9.52-39.1-14.48c-15.64-4.96-34.19-11.3-55.61-19.03c-13.9-4.96-26.8-10.34-38.67-16.14
		c-11.88-5.79-22.16-12.54-30.84-20.27c-8.69-7.72-15.36-17.38-19.98-28.96c-4.64-11.59-6.95-25.65-6.95-42.2
		c0-18.21,4.05-34.2,12.16-48c8.11-13.78,19.12-25.51,33.02-35.17c13.9-9.65,29.98-16.82,48.22-21.52
		c18.25-4.68,37.8-7.03,58.65-7.03c21.42,0,41.56,3.31,60.39,9.93c18.82,6.62,35.19,15.72,49.09,27.31
		c13.9,11.59,24.9,25.38,33.02,41.38c8.11,16.01,12.16,33.39,12.16,52.13h-92.1c0-18.21-5.08-32.69-15.21-43.44
		c-10.14-10.76-26.8-16.14-49.96-16.14c-16.22,0-29.98,3.59-41.27,10.76c-11.3,7.18-16.94,17.66-16.94,31.45
		c0,8.28,2.31,15.04,6.95,20.27c4.63,5.25,11.58,9.93,20.85,14.07c9.26,4.14,20.85,8.56,34.76,13.24
		C7281.77,1032.48,7297.98,1038.13,7316.52,1044.75z"/>
	<g>
		<path class="st1" d="M1382.59,705.77c0,0,123.64,51.54,172.68,178.76V684.01h-172.68V705.77z"/>
		<ellipse class="st1" cx="1468.93" cy="548.27" rx="86.34" ry="86.34"/>
		<path class="st0" d="M1115.51,1253.32c-76.5-32.73-126.55-119.24-116.69-202.23c9.86-83,79-155.33,161.15-168.2
			c82.15-12.88,170.08,35.06,203.86,111.44c50.03,113.14-15.78,263.35,46.74,363.98c33.45,53.83,102.52,77.62,131.9,82.37
			c9.85,1.6,10.61,2.53,10.61-7.15c0-4.71-0.01,1.04,0,0c1.09-97.67,0,0,2.05-261.1c0.52-65.98,0.58-168.31-21.89-230.31
			c-22.49-62.07-66.98-114.78-120.7-152.81c-86.98-61.56-200.05-85.31-303.77-61.55c-103.72,23.76-196.08,95.31-243.27,191.16
			c-95.99,194.99,18.74,445.43,223.49,508.63c97.79,30.18,208.46,15,294.64-40.42c-39.35-54.69-41.19-122.62-38.17-190.93
			C1292.18,1260.34,1192.01,1286.05,1115.51,1253.32z"/>
	</g>
	<g>
		<path class="st0" d="M5727.11,1486.58c-1.31,7.33-3.83,14.19-7.55,20.6c-3.73,6.41-8.53,12-14.42,16.77
			c-5.88,4.78-12.75,8.53-20.6,11.28s-16.48,4.12-25.89,4.12c-11.64,0-22-1.96-31.09-5.88c-9.09-3.92-16.8-9.19-23.15-15.79
			c-6.34-6.6-11.18-14.29-14.52-23.05c-3.33-8.76-5-17.98-5-27.66c0-9.42,1.63-18.44,4.9-27.07c3.27-8.63,8.01-16.28,14.22-22.95
			c6.21-6.67,13.76-12,22.66-15.99c8.89-3.99,18.96-5.98,30.21-5.98c10.59,0,20.04,1.5,28.34,4.51c8.3,3.01,15.36,7.06,21.18,12.16
			c5.82,5.1,10.43,11.12,13.83,18.04c3.4,6.93,5.62,14.32,6.67,22.17h-33.15c-0.78-4.05-2.13-7.78-4.02-11.18
			c-1.9-3.4-4.32-6.38-7.26-8.92s-6.41-4.54-10.4-5.98c-3.99-1.44-8.4-2.16-13.24-2.16c-6.67,0-12.59,1.21-17.75,3.63
			c-5.17,2.42-9.51,5.62-13.04,9.61c-3.53,3.99-6.21,8.6-8.04,13.83c-1.83,5.23-2.75,10.66-2.75,16.28c0,6.02,0.95,11.67,2.84,16.97
			c1.89,5.3,4.71,9.94,8.43,13.93c3.73,3.99,8.24,7.13,13.53,9.42c5.3,2.29,11.41,3.43,18.34,3.43c3.92,0,7.65-0.62,11.18-1.86
			c3.53-1.24,6.77-2.94,9.71-5.1c2.94-2.16,5.46-4.71,7.55-7.65c2.09-2.94,3.59-6.11,4.51-9.51H5727.11z"/>
		<path class="st0" d="M5783.84,1538.36c-8.11,0-15.4-1.34-21.87-4.02c-6.47-2.68-11.97-6.28-16.48-10.79
			c-4.51-4.51-7.98-9.77-10.4-15.79c-2.42-6.01-3.63-12.42-3.63-19.22c0-6.8,1.21-13.21,3.63-19.22c2.42-6.01,5.88-11.28,10.4-15.79
			c4.51-4.51,10-8.11,16.48-10.79c6.47-2.68,13.76-4.02,21.87-4.02c8.24,0,15.59,1.34,22.07,4.02c6.47,2.68,11.96,6.28,16.48,10.79
			c4.51,4.51,7.97,9.78,10.4,15.79c2.42,6.02,3.63,12.43,3.63,19.22c0,6.8-1.21,13.21-3.63,19.22c-2.42,6.02-5.88,11.28-10.4,15.79
			c-4.51,4.51-10,8.11-16.48,10.79C5799.43,1537.02,5792.08,1538.36,5783.84,1538.36z M5783.84,1512.67c3.4,0,6.5-0.62,9.32-1.86
			c2.81-1.24,5.2-2.97,7.16-5.2c1.96-2.22,3.5-4.77,4.61-7.65c1.11-2.88,1.67-6.01,1.67-9.42c0-3.27-0.56-6.37-1.67-9.32
			c-1.11-2.94-2.65-5.49-4.61-7.65c-1.96-2.16-4.35-3.89-7.16-5.2c-2.81-1.31-5.92-1.96-9.32-1.96c-3.4,0-6.47,0.66-9.22,1.96
			c-2.75,1.31-5.1,3.04-7.06,5.2c-1.96,2.16-3.47,4.71-4.51,7.65c-1.05,2.94-1.57,6.05-1.57,9.32c0,3.4,0.52,6.54,1.57,9.42
			c1.05,2.88,2.55,5.43,4.51,7.65c1.96,2.22,4.32,3.96,7.06,5.2C5777.37,1512.05,5780.44,1512.67,5783.84,1512.67z"/>
		<path class="st0" d="M5842.43,1441.27h30.01V1455c2.61-5.1,6.57-9.05,11.87-11.87c5.3-2.81,11.67-4.22,19.12-4.22
			c6.15,0,11.44,0.95,15.89,2.84c4.44,1.9,7.97,4.54,10.59,7.94c3.01,3.66,5,7.88,5.98,12.65c0.98,4.78,1.47,10.56,1.47,17.36v56.1
			h-30.01v-48.45c0-6.8-1.21-12.32-3.63-16.57c-2.42-4.25-6.77-6.38-13.04-6.38c-6.15,0-10.72,2.16-13.73,6.47
			c-3.01,4.32-4.51,10.14-4.51,17.46v47.47h-30.01V1441.27z"/>
		<path class="st0" d="M5947.49,1441.27h30.01V1455c2.61-5.1,6.57-9.05,11.87-11.87c5.3-2.81,11.67-4.22,19.12-4.22
			c6.15,0,11.44,0.95,15.89,2.84c4.44,1.9,7.97,4.54,10.59,7.94c3.01,3.66,5,7.88,5.98,12.65c0.98,4.78,1.47,10.56,1.47,17.36v56.1
			h-30.01v-48.45c0-6.8-1.21-12.32-3.63-16.57c-2.42-4.25-6.77-6.38-13.04-6.38c-6.15,0-10.72,2.16-13.73,6.47
			c-3.01,4.32-4.51,10.14-4.51,17.46v47.47h-30.01V1441.27z"/>
		<path class="st0" d="M6080.29,1495.8c0.13,2.88,0.55,5.59,1.28,8.14c0.72,2.55,1.89,4.77,3.53,6.67c1.63,1.9,3.76,3.4,6.38,4.51
			c2.61,1.11,5.88,1.67,9.81,1.67c5.23,0,9.19-1.04,11.87-3.14c2.68-2.09,4.54-4.64,5.59-7.65h29.42
			c-0.66,4.45-2.19,8.63-4.61,12.55c-2.42,3.92-5.62,7.36-9.61,10.3c-3.99,2.94-8.7,5.26-14.12,6.96
			c-5.43,1.7-11.54,2.55-18.34,2.55c-8.24,0-15.53-1.21-21.87-3.63c-6.34-2.42-11.67-5.85-15.99-10.3
			c-4.32-4.44-7.59-9.71-9.81-15.79c-2.23-6.08-3.33-12.78-3.33-20.11c0-6.93,1.08-13.4,3.24-19.42c2.16-6.01,5.36-11.28,9.61-15.79
			c4.25-4.51,9.48-8.07,15.69-10.69c6.21-2.61,13.44-3.92,21.67-3.92c7.45,0,14.15,1.18,20.1,3.53c5.95,2.35,11.05,5.49,15.3,9.42
			c4.25,3.92,7.52,8.5,9.81,13.73c2.29,5.23,3.43,10.72,3.43,16.48c0,1.96-0.03,4.05-0.1,6.28c-0.07,2.22-0.36,4.77-0.88,7.65
			H6080.29z M6100.49,1458.73c-5.88,0-10.72,1.7-14.52,5.1c-3.79,3.4-5.69,8.31-5.69,14.71h39.62c0-6.15-1.8-10.98-5.39-14.52
			C6110.92,1460.49,6106.25,1458.73,6100.49,1458.73z"/>
		<path class="st0" d="M6226.09,1478.34c-0.66-4.18-2.39-7.58-5.2-10.2c-2.81-2.61-7.29-3.92-13.44-3.92
			c-3.53,0-6.64,0.66-9.32,1.96c-2.68,1.31-4.87,3.07-6.57,5.3c-1.7,2.22-2.98,4.81-3.83,7.75c-0.85,2.94-1.28,6.05-1.28,9.32
			c0,3.27,0.42,6.38,1.28,9.32c0.85,2.94,2.16,5.53,3.92,7.75c1.77,2.22,4.05,3.99,6.87,5.3c2.81,1.31,6.18,1.96,10.1,1.96
			c5.23,0,9.15-1.08,11.77-3.24c2.61-2.16,4.58-5.26,5.88-9.32h30.01c-0.78,5.36-2.35,10.37-4.71,15
			c-2.35,4.64-5.56,8.67-9.61,12.06c-4.05,3.4-8.99,6.08-14.81,8.04c-5.82,1.96-12.46,2.94-19.91,2.94
			c-8.24,0-15.53-1.37-21.87-4.12c-6.34-2.75-11.67-6.41-15.99-10.98c-4.32-4.58-7.55-9.87-9.71-15.89
			c-2.16-6.01-3.24-12.29-3.24-18.83c0-6.54,1.08-12.81,3.24-18.83c2.16-6.01,5.39-11.31,9.71-15.89
			c4.32-4.58,9.64-8.24,15.99-10.98c6.34-2.75,13.63-4.12,21.87-4.12c7.97,0,14.91,1.11,20.79,3.33c5.88,2.23,10.82,5.17,14.81,8.83
			c3.99,3.66,7.06,7.88,9.22,12.65c2.16,4.78,3.5,9.71,4.02,14.81H6226.09z"/>
		<path class="st0" d="M6328.56,1535.81c-2.23,0.39-5,0.75-8.34,1.08c-3.33,0.32-7.23,0.49-11.67,0.49c-3.53,0-7.26-0.26-11.18-0.79
			c-3.92-0.52-7.55-1.86-10.89-4.02c-3.33-2.16-6.08-5.49-8.24-10c-2.16-4.51-3.24-10.69-3.24-18.54v-40.41h-14.91v-22.36h14.91
			v-28.05h29.81v28.05h21.58v22.36h-21.58v33.67c0,3.52,0.33,6.33,0.98,8.42c0.65,2.09,1.57,3.69,2.75,4.8s2.55,1.86,4.12,2.25
			c1.57,0.39,3.27,0.59,5.1,0.59c1.83,0,3.73,0,5.69,0c1.96,0,3.66-0.16,5.1-0.49V1535.81z"/>
		<path class="st0" d="M6333.33,1409.89c0-5.36,1.83-9.87,5.49-13.53c3.66-3.66,8.24-5.49,13.73-5.49c2.75,0,5.3,0.49,7.65,1.47
			c2.35,0.98,4.41,2.32,6.18,4.02c1.77,1.7,3.14,3.73,4.12,6.08c0.98,2.35,1.47,4.84,1.47,7.45c0,2.62-0.49,5.07-1.47,7.36
			c-0.98,2.29-2.35,4.32-4.12,6.08c-1.76,1.76-3.82,3.14-6.18,4.12c-2.35,0.98-4.9,1.47-7.65,1.47s-5.27-0.49-7.55-1.47
			c-2.29-0.98-4.32-2.35-6.08-4.12c-1.76-1.77-3.14-3.79-4.12-6.08C6333.82,1414.96,6333.33,1412.5,6333.33,1409.89z
			 M6337.64,1441.27h30.01v94.54h-30.01V1441.27z"/>
		<path class="st0" d="M6379.15,1441.27h30.01V1455c2.61-5.1,6.57-9.05,11.87-11.87c5.3-2.81,11.67-4.22,19.12-4.22
			c6.15,0,11.44,0.95,15.89,2.84c4.44,1.9,7.97,4.54,10.59,7.94c3.01,3.66,5,7.88,5.98,12.65c0.98,4.78,1.47,10.56,1.47,17.36v56.1
			h-30.01v-48.45c0-6.8-1.21-12.32-3.63-16.57c-2.42-4.25-6.77-6.38-13.04-6.38c-6.15,0-10.72,2.16-13.73,6.47
			c-3.01,4.32-4.51,10.14-4.51,17.46v47.47h-30.01V1441.27z"/>
		<path class="st0" d="M6587.46,1535.23c0,8.63-1.24,15.79-3.73,21.48c-2.49,5.69-6.21,10.43-11.18,14.22
			c-4.45,3.4-9.74,5.95-15.89,7.65c-6.15,1.7-13.6,2.55-22.36,2.55c-8.89,0-16.31-0.98-22.26-2.94c-5.95-1.96-10.89-4.64-14.81-8.04
			c-4.19-3.53-7.45-7.62-9.81-12.26c-2.35-4.64-3.66-9.58-3.92-14.81h30.01c0.39,4.05,2.32,7.71,5.79,10.98
			c3.46,3.27,8.46,4.9,15,4.9c7.06,0,12.68-1.7,16.87-5.1c4.18-3.4,6.28-8.83,6.28-16.28v-15.89c-2.62,4.32-6.54,7.85-11.77,10.59
			c-5.23,2.75-10.92,4.12-17.07,4.12c-6.8,0-13.04-1.18-18.73-3.53c-5.69-2.35-10.56-5.65-14.61-9.91
			c-4.06-4.25-7.23-9.28-9.51-15.1c-2.29-5.82-3.43-12.26-3.43-19.32c0-7.06,1.08-13.63,3.24-19.71c2.16-6.08,5.26-11.31,9.32-15.69
			c4.05-4.38,8.89-7.85,14.51-10.4c5.62-2.55,11.9-3.82,18.83-3.82c6.01,0,11.73,1.41,17.16,4.22c5.42,2.81,9.45,6.7,12.06,11.67
			v-13.53h30.01V1535.23z M6534.7,1464.42c-3.4,0-6.47,0.66-9.22,1.96c-2.75,1.31-5.1,3.07-7.06,5.3c-1.96,2.22-3.47,4.77-4.51,7.65
			c-1.05,2.88-1.57,5.95-1.57,9.22c0,3.27,0.52,6.38,1.57,9.32c1.04,2.94,2.55,5.49,4.51,7.65c1.96,2.16,4.32,3.89,7.06,5.2
			c2.75,1.31,5.82,1.96,9.22,1.96c3.4,0,6.5-0.65,9.32-1.96c2.81-1.31,5.2-3.04,7.16-5.2c1.96-2.16,3.5-4.71,4.61-7.65
			c1.11-2.94,1.67-6.05,1.67-9.32c0-3.27-0.56-6.34-1.67-9.22c-1.11-2.88-2.65-5.42-4.61-7.65c-1.96-2.22-4.35-3.99-7.16-5.3
			C6541.2,1465.07,6538.1,1464.42,6534.7,1464.42z"/>
		<path class="st0" d="M6691.22,1425.97h-30.99v-27.46h93.96v27.46H6723v109.84h-31.78V1425.97z"/>
		<path class="st0" d="M6763.88,1398.51h29.03V1455c2.61-4.97,6.54-8.89,11.77-11.77c5.23-2.87,11.5-4.31,18.83-4.31
			c6.15,0,11.31,0.95,15.5,2.84c4.18,1.9,7.58,4.54,10.2,7.94c3.01,3.66,5.03,7.91,6.08,12.75c1.04,4.84,1.57,10.66,1.57,17.46v55.9
			h-29.03v-48.45c0-6.8-1.21-12.32-3.63-16.57c-2.42-4.25-6.77-6.38-13.04-6.38c-6.15,0-10.72,2.16-13.73,6.47
			c-3.01,4.32-4.51,10.14-4.51,17.46v47.47h-29.03V1398.51z"/>
		<path class="st0" d="M6893.71,1495.8c0.13,2.88,0.55,5.59,1.28,8.14c0.72,2.55,1.89,4.77,3.53,6.67c1.63,1.9,3.76,3.4,6.38,4.51
			c2.61,1.11,5.88,1.67,9.81,1.67c5.23,0,9.19-1.04,11.87-3.14c2.68-2.09,4.54-4.64,5.59-7.65h29.42
			c-0.66,4.45-2.19,8.63-4.61,12.55c-2.42,3.92-5.62,7.36-9.61,10.3c-3.99,2.94-8.7,5.26-14.12,6.96
			c-5.43,1.7-11.54,2.55-18.34,2.55c-8.24,0-15.53-1.21-21.87-3.63c-6.34-2.42-11.67-5.85-15.99-10.3
			c-4.32-4.44-7.59-9.71-9.81-15.79c-2.23-6.08-3.33-12.78-3.33-20.11c0-6.93,1.08-13.4,3.24-19.42c2.16-6.01,5.36-11.28,9.61-15.79
			c4.25-4.51,9.48-8.07,15.69-10.69c6.21-2.61,13.44-3.92,21.67-3.92c7.45,0,14.15,1.18,20.1,3.53c5.95,2.35,11.05,5.49,15.3,9.42
			c4.25,3.92,7.52,8.5,9.81,13.73c2.29,5.23,3.43,10.72,3.43,16.48c0,1.96-0.03,4.05-0.1,6.28c-0.07,2.22-0.36,4.77-0.88,7.65
			H6893.71z M6913.91,1458.73c-5.88,0-10.72,1.7-14.52,5.1c-3.79,3.4-5.69,8.31-5.69,14.71h39.62c0-6.15-1.8-10.98-5.39-14.52
			C6924.34,1460.49,6919.66,1458.73,6913.91,1458.73z"/>
		<path class="st0" d="M7085.62,1398.51c11.38,0,21.48,1.93,30.3,5.79c8.83,3.86,16.28,8.99,22.36,15.4
			c6.08,6.41,10.72,13.73,13.93,21.97c3.2,8.24,4.81,16.74,4.81,25.5c0,8.76-1.57,17.26-4.71,25.5s-7.75,15.56-13.83,21.97
			c-6.08,6.41-13.57,11.54-22.46,15.4c-8.89,3.86-19.03,5.79-30.4,5.79h-50.41v-137.3H7085.62z M7066.98,1425.97v82.38h17.07
			c6.41,0,12.13-1.14,17.16-3.43c5.03-2.29,9.28-5.36,12.75-9.22c3.46-3.86,6.11-8.24,7.94-13.14c1.83-4.9,2.75-10.03,2.75-15.4
			c0-5.23-0.92-10.33-2.75-15.3c-1.83-4.97-4.48-9.38-7.94-13.24c-3.47-3.86-7.72-6.93-12.75-9.22c-5.04-2.29-10.76-3.43-17.16-3.43
			H7066.98z"/>
		<path class="st0" d="M7214.94,1538.36c-8.11,0-15.4-1.34-21.87-4.02c-6.47-2.68-11.97-6.28-16.48-10.79
			c-4.51-4.51-7.98-9.77-10.4-15.79c-2.42-6.01-3.63-12.42-3.63-19.22c0-6.8,1.21-13.21,3.63-19.22c2.42-6.01,5.88-11.28,10.4-15.79
			c4.51-4.51,10-8.11,16.48-10.79c6.47-2.68,13.76-4.02,21.87-4.02c8.24,0,15.59,1.34,22.07,4.02c6.47,2.68,11.96,6.28,16.48,10.79
			c4.51,4.51,7.97,9.78,10.4,15.79c2.42,6.02,3.63,12.43,3.63,19.22c0,6.8-1.21,13.21-3.63,19.22c-2.42,6.02-5.88,11.28-10.4,15.79
			c-4.51,4.51-10,8.11-16.48,10.79C7230.53,1537.02,7223.18,1538.36,7214.94,1538.36z M7214.94,1512.67c3.4,0,6.5-0.62,9.32-1.86
			c2.81-1.24,5.2-2.97,7.16-5.2c1.96-2.22,3.5-4.77,4.61-7.65c1.11-2.88,1.67-6.01,1.67-9.42c0-3.27-0.56-6.37-1.67-9.32
			c-1.11-2.94-2.65-5.49-4.61-7.65c-1.96-2.16-4.35-3.89-7.16-5.2c-2.81-1.31-5.92-1.96-9.32-1.96c-3.4,0-6.47,0.66-9.22,1.96
			c-2.75,1.31-5.1,3.04-7.06,5.2c-1.96,2.16-3.47,4.71-4.51,7.65c-1.05,2.94-1.57,6.05-1.57,9.32c0,3.4,0.52,6.54,1.57,9.42
			c1.05,2.88,2.55,5.43,4.51,7.65c1.96,2.22,4.32,3.96,7.06,5.2C7208.47,1512.05,7211.54,1512.67,7214.94,1512.67z"/>
		<path class="st0" d="M7335.57,1535.81c-2.23,0.39-5,0.75-8.34,1.08c-3.33,0.32-7.23,0.49-11.67,0.49c-3.53,0-7.26-0.26-11.18-0.79
			c-3.92-0.52-7.55-1.86-10.89-4.02c-3.33-2.16-6.08-5.49-8.24-10c-2.16-4.51-3.24-10.69-3.24-18.54v-40.41h-14.91v-22.36h14.91
			v-28.05h29.81v28.05h21.58v22.36h-21.58v33.67c0,3.52,0.33,6.33,0.98,8.42c0.65,2.09,1.57,3.69,2.75,4.8s2.55,1.86,4.12,2.25
			c1.57,0.39,3.27,0.59,5.1,0.59c1.83,0,3.73,0,5.69,0c1.96,0,3.66-0.16,5.1-0.49V1535.81z"/>
		<path class="st0" d="M7396.28,1480.11c4.18,1.18,8.11,2.45,11.77,3.82c3.66,1.37,6.87,3.07,9.61,5.1
			c2.75,2.03,4.93,4.54,6.57,7.55c1.63,3.01,2.45,6.8,2.45,11.38c0,5.62-1.11,10.37-3.33,14.22c-2.23,3.86-5.3,7-9.22,9.42
			c-3.92,2.42-8.47,4.15-13.63,5.2c-5.17,1.04-10.69,1.57-16.57,1.57c-13.47,0-24.1-2.94-31.88-8.83
			c-7.78-5.88-11.67-14.32-11.67-25.3h29.42c0,4.97,1.4,8.53,4.22,10.69c2.81,2.16,6.44,3.24,10.89,3.24c3.66,0,6.63-0.69,8.92-2.06
			c2.29-1.37,3.43-3.63,3.43-6.77c0-1.83-0.49-3.3-1.47-4.41c-0.98-1.11-2.49-2.16-4.51-3.14c-2.03-0.98-4.64-1.96-7.85-2.94
			c-3.21-0.98-7.03-2.19-11.47-3.63c-3.92-1.18-7.65-2.45-11.18-3.83c-3.53-1.37-6.64-3.04-9.32-5c-2.68-1.96-4.81-4.44-6.38-7.45
			c-1.57-3.01-2.35-6.8-2.35-11.38c0-9.81,3.76-17.07,11.28-21.77c7.52-4.71,17.68-7.06,30.5-7.06c6.8,0,12.78,0.82,17.95,2.45
			c5.16,1.64,9.42,3.89,12.75,6.77c3.33,2.88,5.85,6.28,7.55,10.2c1.7,3.92,2.55,8.11,2.55,12.55h-29.62c0-3.92-1.01-6.96-3.04-9.12
			c-2.03-2.16-5.13-3.24-9.32-3.24c-3.01,0-5.62,0.69-7.85,2.06c-2.23,1.37-3.33,3.5-3.33,6.38c0,1.7,0.52,3.11,1.57,4.22
			c1.04,1.11,2.58,2.13,4.61,3.04c2.03,0.92,4.54,1.83,7.55,2.75C7388.9,1477.69,7392.36,1478.8,7396.28,1480.11z"/>
	</g>
</g>
<g>
	<path class="st2" d="M2101.87-2806.67v386.82h-90.48v-52.3c-12.18,19.38-29.47,34.59-51.88,45.65
		c-22.41,11.06-44.97,16.6-67.65,16.6c-29.34,0-56.17-5.4-80.52-16.19c-24.36-10.79-45.24-25.59-62.67-44.41
		c-17.43-18.81-31-40.39-40.67-64.75c-9.69-24.35-14.53-50.35-14.53-78.03c0-27.11,4.84-52.98,14.53-77.61
		c9.68-24.62,23.24-46.34,40.67-65.16c17.43-18.81,38.31-33.62,62.67-44.41c24.34-10.79,51.18-16.19,80.52-16.19
		c22.68,0,45.24,5.54,67.65,16.6c22.41,11.08,39.7,26.29,51.88,45.65v-52.29H2101.87z M1896.84-2490.41
		c17.15,0,32.79-3.32,46.9-9.96c14.11-6.64,26.15-15.49,36.11-26.56c9.96-11.06,17.7-24.07,23.24-39.01
		c5.53-14.94,8.3-30.71,8.3-47.31c0-16.6-2.78-32.37-8.3-47.31c-5.54-14.94-13.28-27.94-23.24-39.01
		c-9.96-11.06-22-19.92-36.11-26.56c-14.11-6.64-29.75-9.96-46.9-9.96c-17.16,0-32.66,3.32-46.48,9.96
		c-13.84,6.64-25.73,15.5-35.69,26.56c-9.96,11.08-17.57,24.07-22.83,39.01c-5.27,14.94-7.89,30.71-7.89,47.31
		c0,16.6,2.62,32.37,7.89,47.31c5.25,14.94,12.87,27.95,22.83,39.01c9.96,11.08,21.85,19.92,35.69,26.56
		C1864.18-2493.73,1879.68-2490.41,1896.84-2490.41z"/>
	<path class="st2" d="M2605.09-2419.86v-216.65c0-30.99-5.68-55.47-17.02-73.46c-11.35-17.98-29.75-26.98-55.2-26.98
		c-11.62,0-22.28,1.95-31.96,5.81c-9.69,3.88-18.26,10.52-25.73,19.92c-7.47,9.42-13.28,21.72-17.43,36.94
		c-4.15,15.23-6.23,34.45-6.23,57.69v196.73h-90.48v-217.48c0-30.99-5.4-55.33-16.19-73.05c-10.79-17.7-28.92-26.56-54.37-26.56
		c-11.62,0-22.41,1.95-32.37,5.81c-9.96,3.88-18.68,10.52-26.15,19.92c-7.47,9.42-13.42,21.72-17.85,36.94
		c-4.44,15.23-6.64,34.45-6.64,57.69v196.73H2117v-386.82h90.48v53.95c8.3-17.7,22-32.79,41.09-45.24
		c19.09-12.45,41.36-18.68,66.82-18.68c35.41,0,62.53,6.64,81.35,19.92c18.81,13.28,32.37,29.61,40.67,48.98
		c9.4-19.36,24.62-35.69,45.65-48.98c21.02-13.28,45.37-19.92,73.05-19.92c28.77,0,52.29,4.57,70.56,13.7
		c18.26,9.13,32.5,20.9,42.75,35.28c10.23,14.4,17.15,30.58,20.75,48.56c3.59,17.99,5.4,36.11,5.4,54.37v244.87H2605.09z"/>
	<path class="st2" d="M3074.72-2613.27c0-29.69,4.5-57.81,13.38-83.55c1.17-3.38,2.4-6.71,3.7-9.99
		c-8.86-18.17-20.08-34.59-33.65-49.24c-17.44-18.8-38.33-33.61-62.67-44.41c-24.35-10.79-51.2-16.18-80.52-16.18
		c-22.69,0-45.24,5.54-67.65,16.6c-22.41,11.08-39.71,26.3-51.88,45.65v-246.54h-90.48v581.06h90.48v-52.29
		c12.16,19.38,29.46,34.6,51.88,45.65c22.41,11.07,44.96,16.6,67.65,16.6c29.32,0,56.17-5.39,80.52-16.18
		c24.35-10.79,45.24-25.59,62.67-44.41c13.39-14.46,24.5-30.54,33.31-48.27c-1.52-3.91-2.94-7.9-4.25-11.97
		C3078.93-2556.42,3074.72-2584.2,3074.72-2613.27z M3014.99-2565.95c-5.26,14.94-12.87,27.95-22.83,39.02
		c-9.95,11.08-21.87,19.92-35.69,26.56c-13.83,6.64-29.34,9.95-46.48,9.95c-17.72,0-33.62-3.31-47.73-9.95
		c-14.11-6.65-26.15-15.49-36.11-26.56c-9.95-11.07-17.57-24.08-22.82-39.02c-5.26-14.94-7.88-30.71-7.88-47.32
		c0-16.6,2.62-32.37,7.88-47.32c5.26-14.94,12.87-27.93,22.82-39.01c9.96-11.07,22-19.93,36.11-26.56s30.02-9.96,47.73-9.96
		c17.14,0,32.65,3.32,46.48,9.96c13.83,6.64,25.74,15.5,35.69,26.56c9.96,11.08,17.57,24.07,22.83,39.01
		c5.26,14.95,7.88,30.71,7.88,47.32C3022.87-2596.67,3020.24-2580.89,3014.99-2565.95z"/>
	<path class="st2" d="M3173.66-2585.87c1.1,13.84,3.59,26.85,7.47,39.01c3.86,12.18,9.82,22.83,17.85,31.96
		c8.02,9.13,18.39,16.33,31.13,21.58c12.72,5.27,28.5,7.89,47.31,7.89c26.01,0,44.82-4.98,56.45-14.94
		c11.62-9.96,20.2-21.85,25.73-35.69h91.31c-2.78,16.6-8.72,32.52-17.85,47.73c-9.13,15.23-21.17,28.64-36.11,40.26
		c-14.94,11.62-32.37,20.9-52.3,27.81c-19.92,6.91-42.33,10.38-67.24,10.38c-32.66,0-61.01-5.27-85.08-15.77
		c-24.07-10.51-44.14-24.9-60.18-43.16c-16.06-18.26-28.09-39.84-36.11-64.75c-8.03-24.9-12.04-51.47-12.04-79.69
		c0-28.77,4.28-55.62,12.87-80.52c8.57-24.9,20.88-46.48,36.94-64.75c16.04-18.26,35.97-32.5,59.77-42.75
		c23.79-10.23,50.91-15.36,81.35-15.36c24.9,0,48.28,4.44,70.14,13.28c21.85,8.86,40.95,21.17,57.28,36.94
		c16.32,15.77,29.05,34.18,38.18,55.2c9.13,21.04,13.7,43.99,13.7,68.9c0,6.64-0.14,14.53-0.42,23.66
		c-0.29,9.13-1.53,20.07-3.74,32.79H3173.66z M3272.44-2748.57c-28.22,0-51.75,8.03-70.56,24.07
		c-18.82,16.06-28.22,39.84-28.22,71.39h192.58c0-29.88-8.72-53.25-26.15-70.14C3322.66-2740.13,3300.1-2748.57,3272.44-2748.57z"/>
	<path class="st2" d="M3715.66-2722.84c-7.2-1.66-13.15-2.76-17.85-3.32c-4.71-0.54-10.66-0.83-17.85-0.83
		c-38.74,0-68.35,11.21-88.82,33.62c-20.48,22.41-30.71,57.98-30.71,106.67v166.85h-90.48v-386.82h90.48v62.26
		c4.42-8.85,10.65-17.29,18.68-25.32c8.02-8.02,17.43-15.21,28.22-21.58c10.79-6.36,22.41-11.34,34.86-14.94
		c12.45-3.59,25.03-5.4,37.77-5.4c14.38,0,26.28,1.94,35.69,5.81V-2722.84z"/>
	<path class="st2" d="M3799.35-2903.62c0-19.76,6.8-36.48,20.42-50.15c13.6-13.65,29.98-20.5,49.09-20.5
		c19.69,0,36.34,6.84,49.96,20.5c13.6,13.67,20.42,30.39,20.42,50.15c0,19.19-6.81,35.62-20.42,49.28
		c-13.62,13.67-30.27,20.5-49.96,20.5c-19.12,0-35.49-6.83-49.09-20.5C3806.15-2868,3799.35-2884.43,3799.35-2903.62z"/>
	<rect x="3821.94" y="-2809.91" class="st2" width="94.71" height="385.62"/>
	<path class="st2" d="M3931.78-2809.91h94.71v53.79c12.73-20.96,30.41-36.82,53-47.58c22.59-10.76,48.94-16.14,79.07-16.14
		c29.54,0,54.31,4.69,74.29,14.07c19.99,9.39,35.76,22.07,47.36,38.07c9.84,14.35,16.65,30.35,20.42,48
		c3.76,17.66,5.65,39.72,5.65,66.2v229.22h-94.71v-199.43c0-16.55-1.45-31.99-4.34-46.34c-2.91-14.34-7.68-26.61-14.34-36.82
		c-6.67-10.2-15.64-18.33-26.94-24.41c-11.3-6.06-25.35-9.1-42.14-9.1c-33.02,0-57.5,11.17-73.42,33.51
		c-15.94,22.34-23.89,50.06-23.89,83.17v199.43h-94.71V-2809.91z"/>
	<path class="st2" d="M4320.51-2809.91h94.71v53.79c12.73-20.96,30.41-36.82,53-47.58c22.59-10.76,48.94-16.14,79.07-16.14
		c29.54,0,54.31,4.69,74.29,14.07c19.98,9.39,35.76,22.07,47.35,38.07c9.84,14.35,16.65,30.35,20.42,48
		c3.76,17.66,5.65,39.72,5.65,66.2v229.22h-94.71v-199.43c0-16.55-1.45-31.99-4.34-46.34c-2.91-14.34-7.68-26.61-14.34-36.82
		c-6.67-10.2-15.64-18.33-26.94-24.41c-11.3-6.06-25.35-9.1-42.14-9.1c-33.02,0-57.5,11.17-73.42,33.51
		c-15.94,22.34-23.89,50.06-23.89,83.17v199.43h-94.71V-2809.91z"/>
	<path class="st2" d="M4913.85-2403.39c-32.12,0-61.08-5.62-86.88-16.87c-25.81-11.25-47.89-26.67-66.24-46.29
		c-18.36-19.6-32.56-42.1-42.58-67.48c-10.04-25.37-15.05-52.48-15.05-81.33c0-28.25,5.01-55.22,15.05-80.9
		c10.03-25.66,24.22-48.3,42.58-67.92c18.35-19.6,40.43-35.04,66.24-46.29c25.81-11.25,54.76-16.87,86.88-16.87
		c32.11,0,61.21,5.62,87.31,16.87c26.09,11.25,48.46,26.69,67.1,46.29c18.63,19.61,32.97,42.26,43.01,67.92
		c10.03,25.67,15.05,52.64,15.05,80.9c0,28.85-5.03,55.95-15.05,81.33c-10.04,25.39-24.38,47.88-43.01,67.48
		c-18.64,19.62-41.01,35.04-67.1,46.29C4975.06-2409.01,4945.96-2403.39,4913.85-2403.39z M4913.85-2487.31
		c17.77,0,33.98-3.46,48.6-10.38c14.62-6.92,27.1-16.14,37.42-27.69c10.32-11.53,18.35-25.09,24.09-40.66
		c5.73-15.57,8.6-32.01,8.6-49.32c0-17.3-2.88-33.74-8.6-49.32c-5.74-15.57-13.76-29.12-24.09-40.66
		c-10.32-11.53-22.8-20.76-37.42-27.69c-14.62-6.92-30.83-10.38-48.6-10.38c-17.78,0-33.84,3.46-48.17,10.38
		c-14.34,6.92-26.67,16.15-36.99,27.69c-10.32,11.54-18.21,25.09-23.66,40.66c-5.46,15.57-8.17,32.01-8.17,49.32
		c0,17.3,2.71,33.74,8.17,49.32c5.44,15.57,13.33,29.13,23.66,40.66c10.32,11.54,22.65,20.76,36.99,27.69
		C4880.01-2490.78,4896.07-2487.31,4913.85-2487.31z"/>
	<path class="st2" d="M5171.67-2809.91l111.22,256.53l112.96-256.53h101.66l-183.34,385.62h-63.43l-180.73-385.62H5171.67z"/>
	<path class="st2" d="M5868.69-2809.91v385.62h-94.71v-52.13c-12.75,19.32-30.85,34.48-54.31,45.51
		c-23.46,11.03-47.07,16.55-70.81,16.55c-30.71,0-58.8-5.38-84.28-16.14c-25.5-10.76-47.35-25.51-65.6-44.27
		c-18.25-18.75-32.45-40.26-42.58-64.55c-10.14-24.27-15.21-50.19-15.21-77.79c0-27.02,5.06-52.82,15.21-77.37
		c10.13-24.54,24.33-46.2,42.58-64.96c18.25-18.75,40.1-33.52,65.6-44.27c25.48-10.76,53.57-16.14,84.28-16.14
		c23.75,0,47.35,5.52,70.81,16.55c23.46,11.04,41.56,26.21,54.31,45.51v-52.13H5868.69z M5654.07-2494.62
		c17.95,0,34.32-3.31,49.09-9.93s27.37-15.44,37.8-26.48c10.43-11.03,18.53-24,24.33-38.89c5.78-14.9,8.69-30.62,8.69-47.17
		c0-16.55-2.91-32.27-8.69-47.17c-5.8-14.9-13.9-27.85-24.33-38.89c-10.43-11.03-23.03-19.86-37.8-26.48
		c-14.77-6.62-31.14-9.93-49.09-9.93c-17.96,0-34.19,3.31-48.66,9.93c-14.49,6.62-26.94,15.45-37.36,26.48
		c-10.43,11.04-18.4,24-23.89,38.89c-5.51,14.9-8.25,30.62-8.25,47.17c0,16.55,2.74,32.27,8.25,47.17
		c5.5,14.9,13.47,27.86,23.89,38.89c10.43,11.04,22.88,19.86,37.36,26.48C5619.89-2497.93,5636.11-2494.62,5654.07-2494.62z"/>
	<path class="st2" d="M6151.81-2424.28c-7.54,1.1-17.68,2.2-30.41,3.31c-12.75,1.1-26.07,1.65-39.97,1.65
		c-11.59,0-24.91-0.97-39.97-2.9c-15.07-1.94-29.41-7.31-43.01-16.14c-13.62-8.82-25.06-22.34-34.32-40.55
		c-9.27-18.21-13.9-43.57-13.9-76.13v-179.57h-68.64v-75.3h68.64v-116.68h94.71v116.68h92.97v75.3h-92.97v158.33
		c0,16.5,1.3,29.69,3.91,39.58c2.61,9.9,6.52,17.46,11.73,22.68c5.21,5.22,11.43,8.65,18.68,10.3c7.24,1.66,15.49,2.47,24.76,2.47
		c7.52,0,16.21,0,26.07,0c9.84,0,17.08-0.83,21.72-2.48V-2424.28z"/>
	<path class="st2" d="M6141.51-2904.24c0-19.78,6.8-36.51,20.42-50.19c13.6-13.67,29.98-20.51,49.09-20.51
		c19.69,0,36.34,6.85,49.96,20.51c13.6,13.68,20.42,30.41,20.42,50.19c0,19.2-6.81,35.65-20.42,49.32
		c-13.62,13.68-30.27,20.51-49.96,20.51c-19.12,0-35.49-6.83-49.09-20.51C6148.31-2868.59,6141.51-2885.04,6141.51-2904.24z"/>
	<rect x="6164.1" y="-2809.91" class="st2" width="94.71" height="385.62"/>
	<path class="st2" d="M6484.71-2414.35c-32.45,0-61.69-5.38-87.76-16.14c-26.07-10.76-48.37-25.51-66.91-44.27
		c-18.55-18.75-32.88-40.26-43.01-64.55c-10.14-24.27-15.21-50.19-15.21-77.79c0-27.02,5.06-52.82,15.21-77.37
		c10.13-24.54,24.46-46.2,43.01-64.96c18.53-18.75,40.84-33.52,66.91-44.27c26.07-10.76,55.31-16.14,87.76-16.14
		c32.43,0,61.83,5.38,88.19,16.14c26.35,10.76,48.94,25.52,67.77,44.27c18.82,18.76,33.3,40.42,43.44,64.96
		c10.13,24.55,15.21,50.35,15.21,77.37c0,27.59-5.08,53.52-15.21,77.79c-10.14,24.28-24.63,45.8-43.44,64.55
		c-18.83,18.76-41.42,33.51-67.77,44.27C6546.54-2419.73,6517.15-2414.35,6484.71-2414.35z M6484.71-2494.62
		c17.95,0,34.32-3.31,49.09-9.93c14.77-6.62,27.37-15.44,37.8-26.48c10.43-11.03,18.53-24,24.33-38.89
		c5.78-14.9,8.69-30.62,8.69-47.17c0-16.55-2.9-32.27-8.69-47.17c-5.8-14.9-13.9-27.85-24.33-38.89
		c-10.43-11.03-23.03-19.86-37.8-26.48c-14.77-6.62-31.15-9.93-49.09-9.93c-17.96,0-34.19,3.31-48.66,9.93
		c-14.49,6.62-26.94,15.45-37.36,26.48c-10.43,11.04-18.4,24-23.89,38.89c-5.51,14.9-8.25,30.62-8.25,47.17
		c0,16.55,2.74,32.27,8.25,47.17c5.5,14.9,13.47,27.86,23.89,38.89c10.43,11.04,22.88,19.86,37.36,26.48
		C6450.53-2497.93,6466.75-2494.62,6484.71-2494.62z"/>
	<path class="st2" d="M6712.36-2809.91h94.71v53.79c12.73-20.96,30.41-36.82,53-47.58c22.59-10.76,48.94-16.14,79.07-16.14
		c29.54,0,54.31,4.69,74.29,14.07c19.98,9.39,35.76,22.07,47.35,38.07c9.84,14.35,16.65,30.35,20.42,48
		c3.76,17.66,5.65,39.72,5.65,66.2v229.22h-94.71v-199.43c0-16.55-1.45-31.99-4.34-46.34c-2.91-14.34-7.68-26.61-14.34-36.82
		c-6.67-10.2-15.64-18.33-26.94-24.41c-11.3-6.06-25.35-9.1-42.14-9.1c-33.02,0-57.5,11.17-73.42,33.51
		c-15.94,22.34-23.89,50.06-23.89,83.17v199.43h-94.71V-2809.91z"/>
	<path class="st2" d="M7311.53-2641.92c13.9,4.96,27.51,10.21,40.84,15.72c13.32,5.52,25.2,12.41,35.63,20.69
		c10.43,8.28,18.68,18.2,24.76,29.79c6.08,11.59,9.12,26.21,9.12,43.86c0,19.86-4.21,37.24-12.6,52.13
		c-8.4,14.89-19.98,27.18-34.76,36.82c-14.77,9.66-32.01,16.83-51.7,21.51c-19.7,4.68-40.55,7.03-62.56,7.03
		c-22.02,0-42.87-3.04-62.56-9.1c-19.7-6.06-37.23-15.02-52.57-26.89c-15.35-11.86-27.52-26.48-36.49-43.86
		c-8.99-17.38-13.47-37.37-13.47-59.99h92.1c0,25.38,7.39,43.17,22.16,53.38c14.77,10.21,33.45,15.31,56.04,15.31
		c18.53,0,34.17-3.31,46.92-9.93c12.74-6.62,19.12-18.2,19.12-34.76c0-8.82-2.61-15.99-7.82-21.51
		c-5.21-5.51-13.03-10.62-23.46-15.31c-10.43-4.68-23.46-9.52-39.1-14.48c-15.64-4.96-34.19-11.3-55.61-19.03
		c-13.9-4.96-26.8-10.34-38.67-16.14c-11.88-5.79-22.16-12.54-30.84-20.27c-8.69-7.72-15.36-17.38-19.98-28.96
		c-4.64-11.59-6.95-25.65-6.95-42.2c0-18.21,4.05-34.2,12.16-48c8.11-13.78,19.12-25.51,33.02-35.17
		c13.9-9.65,29.98-16.82,48.22-21.52c18.25-4.68,37.8-7.03,58.65-7.03c21.42,0,41.56,3.31,60.39,9.93
		c18.82,6.62,35.19,15.72,49.09,27.31c13.9,11.59,24.9,25.38,33.02,41.38c8.11,16.01,12.16,33.39,12.16,52.13h-92.1
		c0-18.21-5.08-32.69-15.21-43.44c-10.14-10.76-26.8-16.14-49.96-16.14c-16.22,0-29.98,3.59-41.27,10.76
		c-11.3,7.18-16.94,17.66-16.94,31.45c0,8.28,2.31,15.04,6.95,20.27c4.63,5.25,11.58,9.93,20.85,14.07
		c9.26,4.14,20.85,8.56,34.76,13.24C7276.78-2654.19,7292.99-2648.54,7311.53-2641.92z"/>
	<g>
		<path class="st2" d="M1377.6-2980.9c0,0,123.64,51.54,172.68,178.76v-200.52H1377.6V-2980.9z"/>
		<ellipse class="st2" cx="1463.94" cy="-3138.4" rx="86.34" ry="86.34"/>
		<path class="st2" d="M1110.52-2433.35c-76.5-32.73-126.55-119.24-116.69-202.23c9.86-83,79-155.33,161.15-168.2
			s170.08,35.06,203.86,111.44c50.03,113.14-15.78,263.35,46.74,363.98c33.45,53.83,102.52,77.62,131.9,82.37
			c9.85,1.6,10.61,2.53,10.61-7.15c0-4.71-0.01,1.04,0,0c1.09-97.67,0,0,2.05-261.1c0.52-65.98,0.58-168.31-21.89-230.31
			c-22.49-62.07-66.98-114.78-120.7-152.81c-86.98-61.56-200.05-85.31-303.77-61.55c-103.72,23.76-196.08,95.31-243.27,191.16
			c-95.99,194.99,18.74,445.43,223.49,508.63c97.79,30.18,208.46,15,294.64-40.42c-39.35-54.69-41.19-122.62-38.17-190.93
			C1287.19-2426.33,1187.03-2400.62,1110.52-2433.35z"/>
	</g>
	<g>
		<path class="st2" d="M5722.12-2200.09c-1.31,7.33-3.83,14.19-7.55,20.6c-3.73,6.41-8.53,12-14.42,16.77
			c-5.88,4.78-12.75,8.53-20.6,11.28s-16.48,4.12-25.89,4.12c-11.64,0-22-1.96-31.09-5.88c-9.09-3.92-16.8-9.19-23.15-15.79
			c-6.34-6.6-11.18-14.29-14.52-23.05c-3.33-8.76-5-17.98-5-27.66c0-9.42,1.63-18.44,4.9-27.07c3.27-8.63,8.01-16.28,14.22-22.95
			c6.21-6.67,13.76-12,22.66-15.99c8.89-3.99,18.96-5.98,30.21-5.98c10.59,0,20.04,1.5,28.34,4.51c8.3,3.01,15.36,7.06,21.18,12.16
			c5.82,5.1,10.43,11.12,13.83,18.04c3.4,6.93,5.62,14.32,6.67,22.17h-33.15c-0.78-4.05-2.13-7.78-4.02-11.18
			c-1.9-3.4-4.32-6.38-7.26-8.92s-6.41-4.54-10.4-5.98c-3.99-1.44-8.4-2.16-13.24-2.16c-6.67,0-12.59,1.21-17.75,3.63
			c-5.17,2.42-9.51,5.62-13.04,9.61c-3.53,3.99-6.21,8.6-8.04,13.83c-1.83,5.23-2.75,10.66-2.75,16.28c0,6.02,0.95,11.67,2.84,16.97
			c1.89,5.3,4.71,9.94,8.43,13.93c3.73,3.99,8.24,7.13,13.53,9.42c5.3,2.29,11.41,3.43,18.34,3.43c3.92,0,7.65-0.62,11.18-1.86
			c3.53-1.24,6.77-2.94,9.71-5.1c2.94-2.16,5.46-4.71,7.55-7.65c2.09-2.94,3.59-6.11,4.51-9.51H5722.12z"/>
		<path class="st2" d="M5778.85-2148.31c-8.11,0-15.4-1.34-21.87-4.02c-6.47-2.68-11.97-6.28-16.48-10.79
			c-4.51-4.51-7.98-9.77-10.4-15.79c-2.42-6.01-3.63-12.42-3.63-19.22c0-6.8,1.21-13.21,3.63-19.22c2.42-6.01,5.88-11.28,10.4-15.79
			c4.51-4.51,10-8.11,16.48-10.79c6.47-2.68,13.76-4.02,21.87-4.02c8.24,0,15.59,1.34,22.07,4.02c6.47,2.68,11.96,6.28,16.48,10.79
			c4.51,4.51,7.97,9.78,10.4,15.79c2.42,6.02,3.63,12.43,3.63,19.22c0,6.8-1.21,13.21-3.63,19.22c-2.42,6.02-5.88,11.28-10.4,15.79
			c-4.51,4.51-10,8.11-16.48,10.79C5794.44-2149.65,5787.09-2148.31,5778.85-2148.31z M5778.85-2174c3.4,0,6.5-0.62,9.32-1.86
			c2.81-1.24,5.2-2.97,7.16-5.2c1.96-2.22,3.5-4.77,4.61-7.65c1.11-2.88,1.67-6.01,1.67-9.42c0-3.27-0.56-6.37-1.67-9.32
			c-1.11-2.94-2.65-5.49-4.61-7.65c-1.96-2.16-4.35-3.89-7.16-5.2c-2.81-1.31-5.92-1.96-9.32-1.96c-3.4,0-6.47,0.66-9.22,1.96
			c-2.75,1.31-5.1,3.04-7.06,5.2c-1.96,2.16-3.47,4.71-4.51,7.65c-1.05,2.94-1.57,6.05-1.57,9.32c0,3.4,0.52,6.54,1.57,9.42
			c1.05,2.88,2.55,5.43,4.51,7.65c1.96,2.22,4.32,3.96,7.06,5.2C5772.38-2174.62,5775.45-2174,5778.85-2174z"/>
		<path class="st2" d="M5837.45-2245.4h30.01v13.73c2.61-5.1,6.57-9.05,11.87-11.87c5.3-2.81,11.67-4.22,19.12-4.22
			c6.15,0,11.44,0.95,15.89,2.84c4.44,1.9,7.97,4.54,10.59,7.94c3.01,3.66,5,7.88,5.98,12.65c0.98,4.78,1.47,10.56,1.47,17.36v56.1
			h-30.01v-48.45c0-6.8-1.21-12.32-3.63-16.57c-2.42-4.25-6.77-6.38-13.04-6.38c-6.15,0-10.72,2.16-13.73,6.47
			c-3.01,4.32-4.51,10.14-4.51,17.46v47.47h-30.01V-2245.4z"/>
		<path class="st2" d="M5942.51-2245.4h30.01v13.73c2.61-5.1,6.57-9.05,11.87-11.87c5.3-2.81,11.67-4.22,19.12-4.22
			c6.15,0,11.44,0.95,15.89,2.84c4.44,1.9,7.97,4.54,10.59,7.94c3.01,3.66,5,7.88,5.98,12.65c0.98,4.78,1.47,10.56,1.47,17.36v56.1
			h-30.01v-48.45c0-6.8-1.21-12.32-3.63-16.57c-2.42-4.25-6.77-6.38-13.04-6.38c-6.15,0-10.72,2.16-13.73,6.47
			c-3.01,4.32-4.51,10.14-4.51,17.46v47.47h-30.01V-2245.4z"/>
		<path class="st2" d="M6075.3-2190.87c0.13,2.88,0.55,5.59,1.28,8.14c0.72,2.55,1.89,4.77,3.53,6.67c1.63,1.9,3.76,3.4,6.38,4.51
			c2.61,1.11,5.88,1.67,9.81,1.67c5.23,0,9.19-1.04,11.87-3.14c2.68-2.09,4.54-4.64,5.59-7.65h29.42
			c-0.66,4.45-2.19,8.63-4.61,12.55c-2.42,3.92-5.62,7.36-9.61,10.3c-3.99,2.94-8.7,5.26-14.12,6.96
			c-5.43,1.7-11.54,2.55-18.34,2.55c-8.24,0-15.53-1.21-21.87-3.63c-6.34-2.42-11.67-5.85-15.99-10.3
			c-4.32-4.44-7.59-9.71-9.81-15.79c-2.23-6.08-3.33-12.78-3.33-20.11c0-6.93,1.08-13.4,3.24-19.42c2.16-6.01,5.36-11.28,9.61-15.79
			c4.25-4.51,9.48-8.07,15.69-10.69c6.21-2.61,13.44-3.92,21.67-3.92c7.45,0,14.15,1.18,20.1,3.53c5.95,2.35,11.05,5.49,15.3,9.42
			c4.25,3.92,7.52,8.5,9.81,13.73c2.29,5.23,3.43,10.72,3.43,16.48c0,1.96-0.03,4.05-0.1,6.28c-0.07,2.22-0.36,4.77-0.88,7.65
			H6075.3z M6095.51-2227.95c-5.88,0-10.72,1.7-14.52,5.1c-3.79,3.4-5.69,8.31-5.69,14.71h39.62c0-6.15-1.8-10.98-5.39-14.52
			C6105.93-2226.18,6101.26-2227.95,6095.51-2227.95z"/>
		<path class="st2" d="M6221.1-2208.33c-0.66-4.18-2.39-7.58-5.2-10.2c-2.81-2.61-7.29-3.92-13.44-3.92c-3.53,0-6.64,0.66-9.32,1.96
			c-2.68,1.31-4.87,3.07-6.57,5.3c-1.7,2.22-2.98,4.81-3.83,7.75c-0.85,2.94-1.28,6.05-1.28,9.32c0,3.27,0.42,6.38,1.28,9.32
			c0.85,2.94,2.16,5.53,3.92,7.75c1.77,2.22,4.05,3.99,6.87,5.3c2.81,1.31,6.18,1.96,10.1,1.96c5.23,0,9.15-1.08,11.77-3.24
			c2.61-2.16,4.58-5.26,5.88-9.32h30.01c-0.78,5.36-2.35,10.37-4.71,15c-2.35,4.64-5.56,8.67-9.61,12.06
			c-4.05,3.4-8.99,6.08-14.81,8.04c-5.82,1.96-12.46,2.94-19.91,2.94c-8.24,0-15.53-1.37-21.87-4.12
			c-6.34-2.75-11.67-6.41-15.99-10.98c-4.32-4.58-7.55-9.87-9.71-15.89c-2.16-6.01-3.24-12.29-3.24-18.83
			c0-6.54,1.08-12.81,3.24-18.83c2.16-6.01,5.39-11.31,9.71-15.89c4.32-4.58,9.64-8.24,15.99-10.98c6.34-2.75,13.63-4.12,21.87-4.12
			c7.97,0,14.91,1.11,20.79,3.33c5.88,2.23,10.82,5.17,14.81,8.83c3.99,3.66,7.06,7.88,9.22,12.65c2.16,4.78,3.5,9.71,4.02,14.81
			H6221.1z"/>
		<path class="st2" d="M6323.57-2150.86c-2.23,0.39-5,0.75-8.34,1.08c-3.33,0.32-7.23,0.49-11.67,0.49c-3.53,0-7.26-0.26-11.18-0.79
			c-3.92-0.52-7.55-1.86-10.89-4.02c-3.33-2.16-6.08-5.49-8.24-10c-2.16-4.51-3.24-10.69-3.24-18.54v-40.41h-14.91v-22.36h14.91
			v-28.05h29.81v28.05h21.58v22.36h-21.58v33.67c0,3.52,0.33,6.33,0.98,8.42c0.65,2.09,1.57,3.69,2.75,4.8s2.55,1.86,4.12,2.25
			c1.57,0.39,3.27,0.59,5.1,0.59c1.83,0,3.73,0,5.69,0c1.96,0,3.66-0.16,5.1-0.49V-2150.86z"/>
		<path class="st2" d="M6328.34-2276.79c0-5.36,1.83-9.87,5.49-13.53c3.66-3.66,8.24-5.49,13.73-5.49c2.75,0,5.3,0.49,7.65,1.47
			c2.35,0.98,4.41,2.32,6.18,4.02c1.77,1.7,3.14,3.73,4.12,6.08c0.98,2.35,1.47,4.84,1.47,7.45c0,2.62-0.49,5.07-1.47,7.36
			c-0.98,2.29-2.35,4.32-4.12,6.08c-1.76,1.76-3.82,3.14-6.18,4.12c-2.35,0.98-4.9,1.47-7.65,1.47s-5.27-0.49-7.55-1.47
			c-2.29-0.98-4.32-2.35-6.08-4.12c-1.76-1.77-3.14-3.79-4.12-6.08C6328.83-2271.72,6328.34-2274.17,6328.34-2276.79z
			 M6332.66-2245.4h30.01v94.54h-30.01V-2245.4z"/>
		<path class="st2" d="M6374.16-2245.4h30.01v13.73c2.61-5.1,6.57-9.05,11.87-11.87c5.3-2.81,11.67-4.22,19.12-4.22
			c6.15,0,11.44,0.95,15.89,2.84c4.44,1.9,7.97,4.54,10.59,7.94c3.01,3.66,5,7.88,5.98,12.65c0.98,4.78,1.47,10.56,1.47,17.36v56.1
			h-30.01v-48.45c0-6.8-1.21-12.32-3.63-16.57c-2.42-4.25-6.77-6.38-13.04-6.38c-6.15,0-10.72,2.16-13.73,6.47
			c-3.01,4.32-4.51,10.14-4.51,17.46v47.47h-30.01V-2245.4z"/>
		<path class="st2" d="M6582.48-2151.45c0,8.63-1.24,15.79-3.73,21.48c-2.49,5.69-6.21,10.43-11.18,14.22
			c-4.45,3.4-9.74,5.95-15.89,7.65c-6.15,1.7-13.6,2.55-22.36,2.55c-8.89,0-16.31-0.98-22.26-2.94c-5.95-1.96-10.89-4.64-14.81-8.04
			c-4.19-3.53-7.45-7.62-9.81-12.26c-2.35-4.64-3.66-9.58-3.92-14.81h30.01c0.39,4.05,2.32,7.71,5.79,10.98
			c3.46,3.27,8.46,4.9,15,4.9c7.06,0,12.68-1.7,16.87-5.1c4.18-3.4,6.28-8.83,6.28-16.28v-15.89c-2.62,4.32-6.54,7.85-11.77,10.59
			c-5.23,2.75-10.92,4.12-17.07,4.12c-6.8,0-13.04-1.18-18.73-3.53c-5.69-2.35-10.56-5.65-14.61-9.91
			c-4.06-4.25-7.23-9.28-9.51-15.1c-2.29-5.82-3.43-12.26-3.43-19.32c0-7.06,1.08-13.63,3.24-19.71c2.16-6.08,5.26-11.31,9.32-15.69
			c4.05-4.38,8.89-7.85,14.51-10.4c5.62-2.55,11.9-3.82,18.83-3.82c6.01,0,11.73,1.41,17.16,4.22c5.42,2.81,9.45,6.7,12.06,11.67
			v-13.53h30.01V-2151.45z M6529.71-2222.26c-3.4,0-6.47,0.66-9.22,1.96c-2.75,1.31-5.1,3.07-7.06,5.3
			c-1.96,2.22-3.47,4.77-4.51,7.65c-1.05,2.88-1.57,5.95-1.57,9.22c0,3.27,0.52,6.38,1.57,9.32c1.04,2.94,2.55,5.49,4.51,7.65
			c1.96,2.16,4.32,3.89,7.06,5.2c2.75,1.31,5.82,1.96,9.22,1.96c3.4,0,6.5-0.65,9.32-1.96c2.81-1.31,5.2-3.04,7.16-5.2
			c1.96-2.16,3.5-4.71,4.61-7.65c1.11-2.94,1.67-6.05,1.67-9.32c0-3.27-0.56-6.34-1.67-9.22c-1.11-2.88-2.65-5.42-4.61-7.65
			c-1.96-2.22-4.35-3.99-7.16-5.3C6536.22-2221.6,6533.11-2222.26,6529.71-2222.26z"/>
		<path class="st2" d="M6686.23-2260.7h-30.99v-27.46h93.96v27.46h-31.19v109.84h-31.78V-2260.7z"/>
		<path class="st2" d="M6758.89-2288.16h29.03v56.49c2.61-4.97,6.54-8.89,11.77-11.77c5.23-2.87,11.5-4.31,18.83-4.31
			c6.15,0,11.31,0.95,15.5,2.84c4.18,1.9,7.58,4.54,10.2,7.94c3.01,3.66,5.03,7.91,6.08,12.75c1.04,4.84,1.57,10.66,1.57,17.46v55.9
			h-29.03v-48.45c0-6.8-1.21-12.32-3.63-16.57c-2.42-4.25-6.77-6.38-13.04-6.38c-6.15,0-10.72,2.16-13.73,6.47
			c-3.01,4.32-4.51,10.14-4.51,17.46v47.47h-29.03V-2288.16z"/>
		<path class="st2" d="M6888.72-2190.87c0.13,2.88,0.55,5.59,1.28,8.14c0.72,2.55,1.89,4.77,3.53,6.67c1.63,1.9,3.76,3.4,6.38,4.51
			c2.61,1.11,5.88,1.67,9.81,1.67c5.23,0,9.19-1.04,11.87-3.14c2.68-2.09,4.54-4.64,5.59-7.65h29.42
			c-0.66,4.45-2.19,8.63-4.61,12.55c-2.42,3.92-5.62,7.36-9.61,10.3c-3.99,2.94-8.7,5.26-14.12,6.96
			c-5.43,1.7-11.54,2.55-18.34,2.55c-8.24,0-15.53-1.21-21.87-3.63c-6.34-2.42-11.67-5.85-15.99-10.3
			c-4.32-4.44-7.59-9.71-9.81-15.79c-2.23-6.08-3.33-12.78-3.33-20.11c0-6.93,1.08-13.4,3.24-19.42c2.16-6.01,5.36-11.28,9.61-15.79
			c4.25-4.51,9.48-8.07,15.69-10.69c6.21-2.61,13.44-3.92,21.67-3.92c7.45,0,14.15,1.18,20.1,3.53c5.95,2.35,11.05,5.49,15.3,9.42
			c4.25,3.92,7.52,8.5,9.81,13.73c2.29,5.23,3.43,10.72,3.43,16.48c0,1.96-0.03,4.05-0.1,6.28c-0.07,2.22-0.36,4.77-0.88,7.65
			H6888.72z M6908.93-2227.95c-5.88,0-10.72,1.7-14.52,5.1c-3.79,3.4-5.69,8.31-5.69,14.71h39.62c0-6.15-1.8-10.98-5.39-14.52
			C6919.35-2226.18,6914.68-2227.95,6908.93-2227.95z"/>
		<path class="st2" d="M7080.63-2288.16c11.38,0,21.48,1.93,30.3,5.79c8.83,3.86,16.28,8.99,22.36,15.4
			c6.08,6.41,10.72,13.73,13.93,21.97c3.2,8.24,4.81,16.74,4.81,25.5c0,8.76-1.57,17.26-4.71,25.5s-7.75,15.56-13.83,21.97
			c-6.08,6.41-13.57,11.54-22.46,15.4c-8.89,3.86-19.03,5.79-30.4,5.79h-50.41v-137.3H7080.63z M7062-2260.7v82.38h17.07
			c6.41,0,12.13-1.14,17.16-3.43c5.03-2.29,9.28-5.36,12.75-9.22c3.46-3.86,6.11-8.24,7.94-13.14c1.83-4.9,2.75-10.03,2.75-15.4
			c0-5.23-0.92-10.33-2.75-15.3c-1.83-4.97-4.48-9.38-7.94-13.24c-3.47-3.86-7.72-6.93-12.75-9.22c-5.04-2.29-10.76-3.43-17.16-3.43
			H7062z"/>
		<path class="st2" d="M7209.95-2148.31c-8.11,0-15.4-1.34-21.87-4.02c-6.47-2.68-11.97-6.28-16.48-10.79
			c-4.51-4.51-7.98-9.77-10.4-15.79c-2.42-6.01-3.63-12.42-3.63-19.22c0-6.8,1.21-13.21,3.63-19.22c2.42-6.01,5.88-11.28,10.4-15.79
			c4.51-4.51,10-8.11,16.48-10.79c6.47-2.68,13.76-4.02,21.87-4.02c8.24,0,15.59,1.34,22.07,4.02c6.47,2.68,11.96,6.28,16.48,10.79
			c4.51,4.51,7.97,9.78,10.4,15.79c2.42,6.02,3.63,12.43,3.63,19.22c0,6.8-1.21,13.21-3.63,19.22c-2.42,6.02-5.88,11.28-10.4,15.79
			c-4.51,4.51-10,8.11-16.48,10.79C7225.55-2149.65,7218.19-2148.31,7209.95-2148.31z M7209.95-2174c3.4,0,6.5-0.62,9.32-1.86
			c2.81-1.24,5.2-2.97,7.16-5.2c1.96-2.22,3.5-4.77,4.61-7.65c1.11-2.88,1.67-6.01,1.67-9.42c0-3.27-0.56-6.37-1.67-9.32
			c-1.11-2.94-2.65-5.49-4.61-7.65c-1.96-2.16-4.35-3.89-7.16-5.2c-2.81-1.31-5.92-1.96-9.32-1.96c-3.4,0-6.47,0.66-9.22,1.96
			c-2.75,1.31-5.1,3.04-7.06,5.2c-1.96,2.16-3.47,4.71-4.51,7.65c-1.05,2.94-1.57,6.05-1.57,9.32c0,3.4,0.52,6.54,1.57,9.42
			c1.05,2.88,2.55,5.43,4.51,7.65c1.96,2.22,4.32,3.96,7.06,5.2C7203.48-2174.62,7206.55-2174,7209.95-2174z"/>
		<path class="st2" d="M7330.59-2150.86c-2.23,0.39-5,0.75-8.34,1.08c-3.33,0.32-7.23,0.49-11.67,0.49c-3.53,0-7.26-0.26-11.18-0.79
			c-3.92-0.52-7.55-1.86-10.89-4.02c-3.33-2.16-6.08-5.49-8.24-10c-2.16-4.51-3.24-10.69-3.24-18.54v-40.41h-14.91v-22.36h14.91
			v-28.05h29.81v28.05h21.58v22.36h-21.58v33.67c0,3.52,0.33,6.33,0.98,8.42c0.65,2.09,1.57,3.69,2.75,4.8s2.55,1.86,4.12,2.25
			c1.57,0.39,3.27,0.59,5.1,0.59c1.83,0,3.73,0,5.69,0c1.96,0,3.66-0.16,5.1-0.49V-2150.86z"/>
		<path class="st2" d="M7391.3-2206.56c4.18,1.18,8.11,2.45,11.77,3.82c3.66,1.37,6.87,3.07,9.61,5.1c2.75,2.03,4.93,4.54,6.57,7.55
			c1.63,3.01,2.45,6.8,2.45,11.38c0,5.62-1.11,10.37-3.33,14.22c-2.23,3.86-5.3,7-9.22,9.42c-3.92,2.42-8.47,4.15-13.63,5.2
			c-5.17,1.04-10.69,1.57-16.57,1.57c-13.47,0-24.1-2.94-31.88-8.83c-7.78-5.88-11.67-14.32-11.67-25.3h29.42
			c0,4.97,1.4,8.53,4.22,10.69c2.81,2.16,6.44,3.24,10.89,3.24c3.66,0,6.63-0.69,8.92-2.06c2.29-1.37,3.43-3.63,3.43-6.77
			c0-1.83-0.49-3.3-1.47-4.41c-0.98-1.11-2.49-2.16-4.51-3.14c-2.03-0.98-4.64-1.96-7.85-2.94c-3.21-0.98-7.03-2.19-11.47-3.63
			c-3.92-1.18-7.65-2.45-11.18-3.83c-3.53-1.37-6.64-3.04-9.32-5c-2.68-1.96-4.81-4.44-6.38-7.45c-1.57-3.01-2.35-6.8-2.35-11.38
			c0-9.81,3.76-17.07,11.28-21.77c7.52-4.71,17.68-7.06,30.5-7.06c6.8,0,12.78,0.82,17.95,2.45c5.16,1.64,9.42,3.89,12.75,6.77
			c3.33,2.88,5.85,6.28,7.55,10.2c1.7,3.92,2.55,8.11,2.55,12.55h-29.62c0-3.92-1.01-6.96-3.04-9.12c-2.03-2.16-5.13-3.24-9.32-3.24
			c-3.01,0-5.62,0.69-7.85,2.06c-2.23,1.37-3.33,3.5-3.33,6.38c0,1.7,0.52,3.11,1.57,4.22c1.04,1.11,2.58,2.13,4.61,3.04
			c2.03,0.92,4.54,1.83,7.55,2.75C7383.91-2208.98,7387.37-2207.87,7391.3-2206.56z"/>
	</g>
</g>
<g>
	<path d="M2303.36,4099.86v386.82h-90.48v-52.3c-12.18,19.38-29.47,34.59-51.88,45.65c-22.41,11.06-44.97,16.6-67.65,16.6
		c-29.34,0-56.17-5.4-80.52-16.19c-24.36-10.79-45.24-25.59-62.67-44.41c-17.43-18.81-31-40.39-40.67-64.75
		c-9.69-24.35-14.53-50.35-14.53-78.03c0-27.11,4.84-52.98,14.53-77.61c9.68-24.62,23.24-46.34,40.67-65.16
		c17.43-18.81,38.31-33.62,62.67-44.41c24.34-10.79,51.18-16.19,80.52-16.19c22.68,0,45.24,5.54,67.65,16.6
		c22.41,11.08,39.7,26.29,51.88,45.65v-52.29H2303.36z M2098.33,4416.13c17.15,0,32.79-3.32,46.9-9.96
		c14.11-6.64,26.15-15.49,36.11-26.56c9.96-11.06,17.7-24.07,23.24-39.01c5.53-14.94,8.3-30.71,8.3-47.31s-2.78-32.37-8.3-47.31
		c-5.54-14.94-13.28-27.94-23.24-39.01c-9.96-11.06-22-19.92-36.11-26.56c-14.11-6.64-29.75-9.96-46.9-9.96
		c-17.16,0-32.66,3.32-46.48,9.96c-13.84,6.64-25.73,15.5-35.69,26.56c-9.96,11.08-17.57,24.07-22.83,39.01
		c-5.27,14.94-7.89,30.71-7.89,47.31s2.62,32.37,7.89,47.31c5.25,14.94,12.87,27.95,22.83,39.01c9.96,11.08,21.85,19.92,35.69,26.56
		C2065.67,4412.8,2081.17,4416.13,2098.33,4416.13z"/>
	<path d="M2806.58,4486.68v-216.65c0-30.99-5.68-55.47-17.02-73.46c-11.35-17.98-29.75-26.98-55.2-26.98
		c-11.62,0-22.28,1.95-31.96,5.81c-9.69,3.88-18.26,10.52-25.73,19.92c-7.47,9.42-13.28,21.72-17.43,36.94
		c-4.15,15.23-6.23,34.45-6.23,57.69v196.73h-90.48V4269.2c0-30.99-5.4-55.33-16.19-73.05c-10.79-17.7-28.92-26.56-54.37-26.56
		c-11.62,0-22.41,1.95-32.37,5.81c-9.96,3.88-18.68,10.52-26.15,19.92c-7.47,9.42-13.42,21.72-17.85,36.94
		c-4.44,15.23-6.64,34.45-6.64,57.69v196.73h-90.48v-386.82h90.48v53.95c8.3-17.7,22-32.79,41.09-45.24
		c19.09-12.45,41.36-18.68,66.82-18.68c35.41,0,62.53,6.64,81.35,19.92c18.81,13.28,32.37,29.61,40.67,48.98
		c9.4-19.36,24.62-35.69,45.65-48.98c21.02-13.28,45.37-19.92,73.05-19.92c28.77,0,52.29,4.57,70.56,13.7
		c18.26,9.13,32.5,20.9,42.75,35.28c10.23,14.4,17.15,30.58,20.75,48.56c3.59,17.99,5.4,36.11,5.4,54.37v244.87H2806.58z"/>
	<path d="M3276.21,4293.27c0-29.69,4.5-57.81,13.38-83.55c1.17-3.38,2.4-6.71,3.7-9.99c-8.86-18.17-20.08-34.59-33.65-49.24
		c-17.44-18.8-38.33-33.61-62.67-44.41c-24.35-10.79-51.2-16.18-80.52-16.18c-22.69,0-45.24,5.54-67.65,16.6
		c-22.41,11.08-39.71,26.29-51.88,45.65v-246.54h-90.48v581.06h90.48v-52.29c12.16,19.38,29.46,34.6,51.88,45.65
		c22.41,11.07,44.96,16.6,67.65,16.6c29.32,0,56.17-5.39,80.52-16.18c24.35-10.79,45.24-25.59,62.67-44.41
		c13.39-14.46,24.5-30.54,33.31-48.27c-1.52-3.91-2.94-7.9-4.25-11.97C3280.41,4350.11,3276.21,4322.34,3276.21,4293.27z
		 M3216.47,4340.59c-5.26,14.94-12.87,27.95-22.83,39.02c-9.95,11.08-21.87,19.92-35.69,26.56c-13.83,6.64-29.34,9.95-46.48,9.95
		c-17.72,0-33.62-3.31-47.73-9.95c-14.11-6.65-26.15-15.49-36.11-26.56c-9.95-11.07-17.57-24.08-22.82-39.02
		c-5.26-14.94-7.88-30.71-7.88-47.32c0-16.6,2.62-32.37,7.88-47.32c5.26-14.94,12.87-27.93,22.82-39.01
		c9.96-11.07,22-19.93,36.11-26.56s30.02-9.96,47.73-9.96c17.14,0,32.65,3.32,46.48,9.96c13.83,6.64,25.74,15.5,35.69,26.56
		c9.96,11.08,17.57,24.07,22.83,39.01c5.26,14.95,7.88,30.71,7.88,47.32C3224.36,4309.87,3221.73,4325.65,3216.47,4340.59z"/>
	<path d="M3375.14,4320.67c1.1,13.84,3.59,26.85,7.47,39.01c3.86,12.18,9.82,22.83,17.85,31.96c8.02,9.13,18.39,16.33,31.13,21.58
		c12.72,5.27,28.5,7.89,47.31,7.89c26.01,0,44.82-4.98,56.45-14.94c11.62-9.96,20.2-21.85,25.73-35.69h91.31
		c-2.78,16.6-8.72,32.52-17.85,47.73c-9.13,15.23-21.17,28.64-36.11,40.26c-14.94,11.62-32.37,20.9-52.3,27.81
		s-42.33,10.38-67.24,10.38c-32.66,0-61.01-5.27-85.08-15.77c-24.07-10.51-44.14-24.9-60.18-43.16
		c-16.06-18.26-28.09-39.84-36.11-64.75c-8.03-24.9-12.04-51.47-12.04-79.69c0-28.77,4.28-55.62,12.87-80.52
		c8.57-24.9,20.88-46.48,36.94-64.75c16.04-18.26,35.97-32.5,59.77-42.75c23.79-10.23,50.91-15.36,81.35-15.36
		c24.9,0,48.28,4.44,70.14,13.28c21.85,8.86,40.95,21.17,57.28,36.94c16.32,15.77,29.05,34.18,38.18,55.2
		c9.13,21.04,13.7,43.99,13.7,68.9c0,6.64-0.14,14.53-0.42,23.66c-0.29,9.13-1.53,20.06-3.74,32.79H3375.14z M3473.92,4157.97
		c-28.22,0-51.75,8.03-70.56,24.07c-18.82,16.06-28.22,39.84-28.22,71.39h192.58c0-29.88-8.72-53.25-26.15-70.14
		C3524.14,4166.41,3501.59,4157.97,3473.92,4157.97z"/>
	<path d="M3917.14,4183.7c-7.2-1.66-13.15-2.76-17.85-3.32c-4.71-0.55-10.66-0.83-17.85-0.83c-38.74,0-68.35,11.21-88.82,33.62
		c-20.48,22.41-30.71,57.98-30.71,106.67v166.85h-90.48v-386.82h90.48v62.26c4.42-8.85,10.65-17.29,18.68-25.32
		c8.02-8.02,17.43-15.21,28.22-21.58c10.79-6.35,22.41-11.33,34.86-14.94c12.45-3.59,25.03-5.4,37.77-5.4
		c14.38,0,26.28,1.95,35.69,5.81V4183.7z"/>
	<path d="M4000.84,4002.92c0-19.76,6.8-36.48,20.42-50.15c13.6-13.65,29.98-20.5,49.09-20.5c19.69,0,36.34,6.84,49.96,20.5
		c13.6,13.67,20.42,30.39,20.42,50.15c0,19.19-6.81,35.62-20.42,49.28c-13.62,13.67-30.28,20.5-49.96,20.5
		c-19.12,0-35.49-6.83-49.09-20.5C4007.64,4038.54,4000.84,4022.1,4000.84,4002.92z"/>
	<rect x="4023.43" y="4096.63" width="94.71" height="385.62"/>
	<path d="M4133.26,4096.63h94.71v53.79c12.73-20.96,30.41-36.82,53-47.58c22.59-10.76,48.94-16.14,79.07-16.14
		c29.54,0,54.31,4.69,74.29,14.07c19.99,9.39,35.76,22.07,47.36,38.07c9.84,14.35,16.65,30.35,20.42,48
		c3.76,17.66,5.65,39.72,5.65,66.2v229.22h-94.71v-199.43c0-16.55-1.45-31.99-4.34-46.34c-2.91-14.34-7.68-26.61-14.34-36.82
		c-6.67-10.2-15.64-18.33-26.94-24.41c-11.3-6.06-25.35-9.1-42.14-9.1c-33.02,0-57.5,11.17-73.42,33.51
		c-15.94,22.34-23.89,50.06-23.89,83.17v199.43h-94.71V4096.63z"/>
	<path d="M4522,4096.63h94.71v53.79c12.73-20.96,30.41-36.82,53-47.58c22.59-10.76,48.94-16.14,79.07-16.14
		c29.54,0,54.31,4.69,74.29,14.07c19.98,9.39,35.76,22.07,47.35,38.07c9.84,14.35,16.65,30.35,20.42,48
		c3.76,17.66,5.65,39.72,5.65,66.2v229.22h-94.71v-199.43c0-16.55-1.45-31.99-4.34-46.34c-2.91-14.34-7.68-26.61-14.34-36.82
		c-6.67-10.2-15.64-18.33-26.94-24.41c-11.3-6.06-25.35-9.1-42.14-9.1c-33.02,0-57.5,11.17-73.42,33.51
		c-15.94,22.34-23.89,50.06-23.89,83.17v199.43H4522V4096.63z"/>
	<path d="M5115.34,4503.15c-32.12,0-61.08-5.62-86.88-16.87c-25.81-11.25-47.89-26.67-66.24-46.29
		c-18.36-19.6-32.56-42.1-42.58-67.48c-10.04-25.37-15.05-52.48-15.05-81.33c0-28.25,5.01-55.22,15.05-80.9
		c10.03-25.66,24.22-48.3,42.58-67.92c18.35-19.6,40.43-35.04,66.24-46.29c25.81-11.25,54.76-16.87,86.88-16.87
		c32.11,0,61.21,5.62,87.31,16.87c26.09,11.25,48.46,26.69,67.1,46.29c18.63,19.61,32.97,42.26,43.01,67.92
		c10.03,25.67,15.05,52.64,15.05,80.9c0,28.85-5.03,55.95-15.05,81.33c-10.04,25.39-24.38,47.88-43.01,67.48
		c-18.64,19.62-41.01,35.04-67.1,46.29C5176.55,4497.52,5147.45,4503.15,5115.34,4503.15z M5115.34,4419.22
		c17.77,0,33.98-3.46,48.6-10.38c14.62-6.92,27.1-16.14,37.42-27.69c10.32-11.53,18.35-25.09,24.09-40.66
		c5.73-15.57,8.6-32.01,8.6-49.32c0-17.3-2.88-33.74-8.6-49.32c-5.74-15.57-13.76-29.12-24.09-40.66
		c-10.32-11.53-22.8-20.76-37.42-27.69c-14.62-6.92-30.83-10.38-48.6-10.38c-17.78,0-33.84,3.46-48.17,10.38
		c-14.34,6.92-26.67,16.15-36.99,27.69c-10.32,11.54-18.21,25.09-23.66,40.66c-5.46,15.57-8.17,32.01-8.17,49.32
		c0,17.3,2.71,33.74,8.17,49.32c5.44,15.57,13.33,29.13,23.66,40.66c10.32,11.54,22.65,20.76,36.99,27.69
		C5081.49,4415.76,5097.55,4419.22,5115.34,4419.22z"/>
	<path d="M5373.16,4096.63l111.22,256.53l112.96-256.53h101.66l-183.34,385.62h-63.43l-180.73-385.62H5373.16z"/>
	<path d="M6070.17,4096.63v385.62h-94.71v-52.13c-12.75,19.32-30.85,34.48-54.31,45.51c-23.46,11.03-47.07,16.55-70.81,16.55
		c-30.71,0-58.8-5.38-84.28-16.14c-25.5-10.76-47.35-25.51-65.6-44.27c-18.25-18.75-32.45-40.26-42.58-64.55
		c-10.14-24.27-15.21-50.19-15.21-77.79c0-27.02,5.06-52.82,15.21-77.37c10.13-24.54,24.33-46.2,42.58-64.96
		c18.25-18.75,40.1-33.52,65.6-44.27c25.48-10.76,53.57-16.14,84.28-16.14c23.75,0,47.35,5.52,70.81,16.55
		c23.46,11.04,41.56,26.21,54.31,45.51v-52.13H6070.17z M5855.56,4411.92c17.95,0,34.32-3.31,49.09-9.93
		c14.77-6.62,27.37-15.44,37.8-26.48c10.43-11.03,18.53-24,24.33-38.89c5.78-14.9,8.69-30.62,8.69-47.17
		c0-16.55-2.91-32.27-8.69-47.17c-5.8-14.9-13.9-27.85-24.33-38.89c-10.43-11.03-23.03-19.86-37.8-26.48
		c-14.77-6.62-31.14-9.93-49.09-9.93c-17.96,0-34.19,3.31-48.66,9.93c-14.49,6.62-26.94,15.45-37.36,26.48
		c-10.43,11.04-18.4,24-23.89,38.89c-5.51,14.9-8.25,30.62-8.25,47.17c0,16.55,2.74,32.27,8.25,47.17
		c5.5,14.9,13.47,27.86,23.89,38.89c10.43,11.04,22.88,19.86,37.36,26.48C5821.37,4408.6,5837.6,4411.92,5855.56,4411.92z"/>
	<path d="M6353.29,4482.25c-7.54,1.1-17.68,2.2-30.41,3.31c-12.75,1.1-26.07,1.65-39.97,1.65c-11.59,0-24.91-0.97-39.97-2.9
		c-15.07-1.94-29.41-7.31-43.01-16.14c-13.62-8.82-25.06-22.34-34.32-40.55c-9.27-18.21-13.9-43.57-13.9-76.13v-179.57h-68.64v-75.3
		h68.64v-116.68h94.71v116.68h92.97v75.3h-92.97v158.33c0,16.5,1.3,29.69,3.91,39.58c2.61,9.9,6.52,17.46,11.73,22.68
		c5.21,5.22,11.43,8.65,18.68,10.3c7.24,1.66,15.49,2.47,24.76,2.47c7.52,0,16.21,0,26.07,0c9.84,0,17.08-0.83,21.72-2.48V4482.25z"
		/>
	<path d="M6342.99,4002.3c0-19.78,6.8-36.51,20.42-50.19c13.6-13.67,29.98-20.51,49.09-20.51c19.69,0,36.34,6.85,49.96,20.51
		c13.6,13.68,20.42,30.41,20.42,50.19c0,19.2-6.81,35.65-20.42,49.32c-13.62,13.68-30.27,20.51-49.96,20.51
		c-19.12,0-35.49-6.83-49.09-20.51C6349.8,4037.95,6342.99,4021.5,6342.99,4002.3z"/>
	<rect x="6365.58" y="4096.63" width="94.71" height="385.62"/>
	<path d="M6686.2,4492.18c-32.45,0-61.69-5.38-87.76-16.14c-26.07-10.76-48.37-25.51-66.91-44.27
		c-18.55-18.75-32.88-40.26-43.01-64.55c-10.14-24.27-15.21-50.19-15.21-77.79c0-27.02,5.06-52.82,15.21-77.37
		c10.13-24.54,24.46-46.2,43.01-64.96c18.53-18.75,40.84-33.52,66.91-44.27c26.07-10.76,55.31-16.14,87.76-16.14
		c32.43,0,61.83,5.38,88.19,16.14c26.35,10.76,48.94,25.52,67.77,44.27c18.82,18.76,33.3,40.42,43.44,64.96
		c10.13,24.55,15.21,50.35,15.21,77.37c0,27.59-5.08,53.52-15.21,77.79c-10.14,24.28-24.63,45.8-43.44,64.55
		c-18.83,18.76-41.42,33.51-67.77,44.27C6748.02,4486.81,6718.63,4492.18,6686.2,4492.18z M6686.2,4411.92
		c17.95,0,34.32-3.31,49.09-9.93c14.77-6.62,27.37-15.44,37.8-26.48c10.43-11.03,18.53-24,24.33-38.89
		c5.78-14.9,8.69-30.62,8.69-47.17c0-16.55-2.91-32.27-8.69-47.17c-5.8-14.9-13.9-27.85-24.33-38.89
		c-10.43-11.03-23.03-19.86-37.8-26.48c-14.77-6.62-31.15-9.93-49.09-9.93c-17.96,0-34.19,3.31-48.66,9.93
		c-14.49,6.62-26.94,15.45-37.36,26.48c-10.43,11.04-18.4,24-23.89,38.89c-5.51,14.9-8.25,30.62-8.25,47.17
		c0,16.55,2.74,32.27,8.25,47.17c5.5,14.9,13.47,27.86,23.89,38.89c10.43,11.04,22.88,19.86,37.36,26.48
		C6652.01,4408.6,6668.24,4411.92,6686.2,4411.92z"/>
	<path d="M6913.84,4096.63h94.71v53.79c12.73-20.96,30.41-36.82,53-47.58c22.59-10.76,48.94-16.14,79.07-16.14
		c29.54,0,54.31,4.69,74.29,14.07c19.98,9.39,35.76,22.07,47.35,38.07c9.84,14.35,16.65,30.35,20.42,48
		c3.76,17.66,5.65,39.72,5.65,66.2v229.22h-94.71v-199.43c0-16.55-1.45-31.99-4.34-46.34c-2.91-14.34-7.68-26.61-14.34-36.82
		c-6.67-10.2-15.64-18.33-26.94-24.41c-11.3-6.06-25.35-9.1-42.14-9.1c-33.02,0-57.5,11.17-73.42,33.51
		c-15.94,22.34-23.89,50.06-23.89,83.17v199.43h-94.71V4096.63z"/>
	<path d="M7513.02,4264.62c13.9,4.96,27.51,10.21,40.84,15.72c13.32,5.52,25.2,12.41,35.63,20.69c10.43,8.27,18.68,18.2,24.76,29.79
		c6.08,11.59,9.12,26.21,9.12,43.86c0,19.86-4.21,37.24-12.6,52.13c-8.4,14.89-19.98,27.18-34.76,36.82
		c-14.77,9.66-32.01,16.83-51.7,21.51c-19.7,4.68-40.55,7.03-62.56,7.03c-22.02,0-42.87-3.04-62.56-9.1
		c-19.7-6.06-37.23-15.02-52.57-26.89c-15.35-11.86-27.52-26.48-36.49-43.86c-8.99-17.38-13.47-37.37-13.47-59.99h92.1
		c0,25.38,7.39,43.17,22.16,53.38c14.77,10.21,33.45,15.31,56.04,15.31c18.53,0,34.17-3.31,46.92-9.93
		c12.74-6.62,19.12-18.2,19.12-34.76c0-8.82-2.61-15.99-7.82-21.52c-5.21-5.51-13.03-10.62-23.46-15.31
		c-10.43-4.68-23.46-9.52-39.1-14.48c-15.64-4.96-34.19-11.3-55.61-19.03c-13.9-4.96-26.8-10.34-38.67-16.14
		c-11.88-5.79-22.16-12.54-30.84-20.27c-8.69-7.72-15.36-17.38-19.98-28.96c-4.64-11.58-6.95-25.65-6.95-42.2
		c0-18.21,4.05-34.2,12.16-48c8.11-13.78,19.12-25.51,33.02-35.17c13.9-9.65,29.98-16.82,48.22-21.52
		c18.25-4.68,37.8-7.03,58.65-7.03c21.42,0,41.56,3.31,60.39,9.93c18.82,6.62,35.19,15.72,49.09,27.31
		c13.9,11.58,24.9,25.38,33.02,41.38c8.11,16.01,12.16,33.39,12.16,52.13h-92.1c0-18.21-5.08-32.69-15.21-43.44
		c-10.14-10.76-26.8-16.14-49.96-16.14c-16.22,0-29.98,3.59-41.27,10.76c-11.3,7.18-16.94,17.66-16.94,31.45
		c0,8.28,2.31,15.04,6.95,20.27c4.63,5.25,11.58,9.93,20.85,14.07c9.26,4.14,20.85,8.56,34.76,13.24
		C7478.26,4252.35,7494.47,4258,7513.02,4264.62z"/>
	<g>
		<path d="M1579.09,3925.64c0,0,123.64,51.54,172.68,178.76v-200.52h-172.68V3925.64z"/>
		<ellipse cx="1665.43" cy="3768.14" rx="86.34" ry="86.34"/>
		<path d="M1312.01,4473.19c-76.5-32.73-126.55-119.24-116.69-202.23c9.86-83,79-155.33,161.15-168.21
			c82.15-12.88,170.08,35.06,203.86,111.44c50.03,113.14-15.78,263.35,46.74,363.98c33.45,53.83,102.52,77.62,131.9,82.37
			c9.85,1.6,10.61,2.53,10.61-7.15c0-4.71-0.01,1.04,0,0c1.09-97.67,0,0,2.05-261.1c0.52-65.98,0.58-168.31-21.89-230.31
			c-22.49-62.07-66.98-114.78-120.7-152.81c-86.98-61.56-200.05-85.31-303.77-61.55c-103.72,23.76-196.08,95.31-243.27,191.16
			c-95.99,194.99,18.74,445.43,223.49,508.63c97.79,30.18,208.46,15,294.64-40.42c-39.35-54.69-41.19-122.62-38.17-190.93
			C1488.67,4480.21,1388.51,4505.92,1312.01,4473.19z"/>
	</g>
	<g>
		<path d="M5923.61,4706.45c-1.31,7.33-3.83,14.19-7.55,20.6c-3.73,6.41-8.53,12-14.42,16.77c-5.88,4.78-12.75,8.53-20.6,11.28
			s-16.48,4.12-25.89,4.12c-11.64,0-22-1.96-31.09-5.88c-9.09-3.92-16.8-9.19-23.15-15.79c-6.34-6.6-11.18-14.29-14.52-23.05
			c-3.33-8.76-5-17.98-5-27.66c0-9.42,1.63-18.44,4.9-27.07c3.27-8.63,8.01-16.28,14.22-22.95c6.21-6.67,13.76-12,22.66-15.99
			c8.89-3.99,18.96-5.98,30.21-5.98c10.59,0,20.04,1.5,28.34,4.51c8.3,3.01,15.36,7.06,21.18,12.16
			c5.82,5.1,10.43,11.12,13.83,18.04c3.4,6.93,5.62,14.32,6.67,22.17h-33.15c-0.78-4.05-2.13-7.78-4.02-11.18
			c-1.9-3.4-4.32-6.38-7.26-8.92s-6.41-4.54-10.4-5.98c-3.99-1.44-8.4-2.16-13.24-2.16c-6.67,0-12.59,1.21-17.75,3.63
			c-5.17,2.42-9.51,5.62-13.04,9.61c-3.53,3.99-6.21,8.6-8.04,13.83c-1.83,5.23-2.75,10.66-2.75,16.28c0,6.02,0.95,11.67,2.84,16.97
			c1.89,5.3,4.71,9.94,8.43,13.93c3.73,3.99,8.24,7.13,13.53,9.42c5.3,2.29,11.41,3.43,18.34,3.43c3.92,0,7.65-0.62,11.18-1.86
			c3.53-1.24,6.77-2.94,9.71-5.1c2.94-2.16,5.46-4.71,7.55-7.65c2.09-2.94,3.59-6.11,4.51-9.51H5923.61z"/>
		<path d="M5980.34,4758.23c-8.11,0-15.4-1.34-21.87-4.02c-6.47-2.68-11.97-6.28-16.48-10.79c-4.51-4.51-7.98-9.77-10.4-15.79
			c-2.42-6.01-3.63-12.42-3.63-19.22c0-6.8,1.21-13.21,3.63-19.22c2.42-6.01,5.88-11.28,10.4-15.79c4.51-4.51,10-8.11,16.48-10.79
			c6.47-2.68,13.76-4.02,21.87-4.02c8.24,0,15.59,1.34,22.07,4.02c6.47,2.68,11.96,6.28,16.48,10.79c4.51,4.51,7.97,9.78,10.4,15.79
			c2.42,6.02,3.63,12.43,3.63,19.22c0,6.8-1.21,13.21-3.63,19.22c-2.42,6.02-5.88,11.28-10.4,15.79c-4.51,4.51-10,8.11-16.48,10.79
			C5995.93,4756.89,5988.57,4758.23,5980.34,4758.23z M5980.34,4732.53c3.4,0,6.5-0.62,9.32-1.86c2.81-1.24,5.2-2.97,7.16-5.2
			c1.96-2.22,3.5-4.77,4.61-7.65c1.11-2.88,1.67-6.01,1.67-9.42c0-3.27-0.56-6.37-1.67-9.32c-1.11-2.94-2.65-5.49-4.61-7.65
			c-1.96-2.16-4.35-3.89-7.16-5.2c-2.81-1.31-5.92-1.96-9.32-1.96c-3.4,0-6.47,0.66-9.22,1.96c-2.75,1.31-5.1,3.04-7.06,5.2
			c-1.96,2.16-3.47,4.71-4.51,7.65c-1.05,2.94-1.57,6.05-1.57,9.32c0,3.4,0.52,6.54,1.57,9.42c1.05,2.88,2.55,5.43,4.51,7.65
			c1.96,2.22,4.32,3.96,7.06,5.2C5973.86,4731.92,5976.94,4732.53,5980.34,4732.53z"/>
		<path d="M6038.93,4661.14h30.01v13.73c2.61-5.1,6.57-9.05,11.87-11.87c5.3-2.81,11.67-4.22,19.12-4.22
			c6.15,0,11.44,0.95,15.89,2.84c4.44,1.9,7.97,4.54,10.59,7.94c3.01,3.66,5,7.88,5.98,12.65c0.98,4.78,1.47,10.56,1.47,17.36v56.1
			h-30.01v-48.45c0-6.8-1.21-12.32-3.63-16.57c-2.42-4.25-6.77-6.38-13.04-6.38c-6.15,0-10.72,2.16-13.73,6.47
			c-3.01,4.32-4.51,10.14-4.51,17.46v47.47h-30.01V4661.14z"/>
		<path d="M6143.99,4661.14H6174v13.73c2.61-5.1,6.57-9.05,11.87-11.87c5.3-2.81,11.67-4.22,19.12-4.22
			c6.15,0,11.44,0.95,15.89,2.84c4.44,1.9,7.97,4.54,10.59,7.94c3.01,3.66,5,7.88,5.98,12.65c0.98,4.78,1.47,10.56,1.47,17.36v56.1
			h-30.01v-48.45c0-6.8-1.21-12.32-3.63-16.57c-2.42-4.25-6.77-6.38-13.04-6.38c-6.15,0-10.72,2.16-13.73,6.47
			c-3.01,4.32-4.51,10.14-4.51,17.46v47.47h-30.01V4661.14z"/>
		<path d="M6276.79,4715.67c0.13,2.88,0.55,5.59,1.28,8.14c0.72,2.55,1.89,4.77,3.53,6.67c1.63,1.9,3.76,3.4,6.38,4.51
			c2.61,1.11,5.88,1.67,9.81,1.67c5.23,0,9.19-1.04,11.87-3.14c2.68-2.09,4.54-4.64,5.59-7.65h29.42
			c-0.66,4.45-2.19,8.63-4.61,12.55c-2.42,3.92-5.62,7.36-9.61,10.3c-3.99,2.94-8.7,5.26-14.12,6.96
			c-5.43,1.7-11.54,2.55-18.34,2.55c-8.24,0-15.53-1.21-21.87-3.63c-6.34-2.42-11.67-5.85-15.99-10.3
			c-4.32-4.44-7.59-9.71-9.81-15.79c-2.23-6.08-3.33-12.78-3.33-20.11c0-6.93,1.08-13.4,3.24-19.42c2.16-6.01,5.36-11.28,9.61-15.79
			c4.25-4.51,9.48-8.07,15.69-10.69c6.21-2.61,13.44-3.92,21.67-3.92c7.45,0,14.15,1.18,20.1,3.53c5.95,2.35,11.05,5.49,15.3,9.42
			c4.25,3.92,7.52,8.5,9.81,13.73c2.29,5.23,3.43,10.72,3.43,16.48c0,1.96-0.03,4.05-0.1,6.28c-0.07,2.22-0.36,4.77-0.88,7.65
			H6276.79z M6296.99,4678.59c-5.88,0-10.72,1.7-14.52,5.1c-3.79,3.4-5.69,8.31-5.69,14.71h39.62c0-6.15-1.8-10.98-5.39-14.52
			C6307.42,4680.36,6302.74,4678.59,6296.99,4678.59z"/>
		<path d="M6422.59,4698.21c-0.66-4.18-2.39-7.58-5.2-10.2c-2.81-2.61-7.29-3.92-13.44-3.92c-3.53,0-6.64,0.66-9.32,1.96
			c-2.68,1.31-4.87,3.07-6.57,5.3c-1.7,2.22-2.98,4.81-3.83,7.75c-0.85,2.94-1.28,6.05-1.28,9.32c0,3.27,0.42,6.38,1.28,9.32
			c0.85,2.94,2.16,5.53,3.92,7.75c1.77,2.22,4.05,3.99,6.87,5.3c2.81,1.31,6.18,1.96,10.1,1.96c5.23,0,9.15-1.08,11.77-3.24
			c2.61-2.16,4.58-5.26,5.88-9.32h30.01c-0.78,5.36-2.35,10.37-4.71,15c-2.35,4.64-5.56,8.67-9.61,12.06
			c-4.05,3.4-8.99,6.08-14.81,8.04c-5.82,1.96-12.46,2.94-19.91,2.94c-8.24,0-15.53-1.37-21.87-4.12
			c-6.34-2.75-11.67-6.41-15.99-10.98c-4.32-4.58-7.55-9.87-9.71-15.89c-2.16-6.01-3.24-12.29-3.24-18.83
			c0-6.54,1.08-12.81,3.24-18.83c2.16-6.01,5.39-11.31,9.71-15.89c4.32-4.58,9.64-8.24,15.99-10.98c6.34-2.75,13.63-4.12,21.87-4.12
			c7.97,0,14.91,1.11,20.79,3.33c5.88,2.23,10.82,5.17,14.81,8.83c3.99,3.66,7.06,7.88,9.22,12.65c2.16,4.78,3.5,9.71,4.02,14.81
			H6422.59z"/>
		<path d="M6525.06,4755.68c-2.23,0.39-5,0.75-8.34,1.08c-3.33,0.32-7.23,0.49-11.67,0.49c-3.53,0-7.26-0.26-11.18-0.79
			c-3.92-0.52-7.55-1.86-10.89-4.02c-3.33-2.16-6.08-5.49-8.24-10c-2.16-4.51-3.24-10.69-3.24-18.54v-40.41h-14.91v-22.36h14.91
			v-28.05h29.81v28.05h21.58v22.36h-21.58v33.67c0,3.52,0.33,6.33,0.98,8.42c0.65,2.09,1.57,3.69,2.75,4.8s2.55,1.86,4.12,2.25
			c1.57,0.39,3.27,0.59,5.1,0.59c1.83,0,3.73,0,5.69,0c1.96,0,3.66-0.16,5.1-0.49V4755.68z"/>
		<path d="M6529.83,4629.75c0-5.36,1.83-9.87,5.49-13.53c3.66-3.66,8.24-5.49,13.73-5.49c2.75,0,5.3,0.49,7.65,1.47
			c2.35,0.98,4.41,2.32,6.18,4.02c1.77,1.7,3.14,3.73,4.12,6.08c0.98,2.35,1.47,4.84,1.47,7.45c0,2.62-0.49,5.07-1.47,7.36
			c-0.98,2.29-2.35,4.32-4.12,6.08c-1.76,1.76-3.82,3.14-6.18,4.12c-2.35,0.98-4.9,1.47-7.65,1.47s-5.27-0.49-7.55-1.47
			c-2.29-0.98-4.32-2.35-6.08-4.12c-1.76-1.77-3.14-3.79-4.12-6.08C6530.32,4634.82,6529.83,4632.37,6529.83,4629.75z
			 M6534.14,4661.14h30.01v94.54h-30.01V4661.14z"/>
		<path d="M6575.65,4661.14h30.01v13.73c2.61-5.1,6.57-9.05,11.87-11.87c5.3-2.81,11.67-4.22,19.12-4.22
			c6.15,0,11.44,0.95,15.89,2.84c4.44,1.9,7.97,4.54,10.59,7.94c3.01,3.66,5,7.88,5.98,12.65c0.98,4.78,1.47,10.56,1.47,17.36v56.1
			h-30.01v-48.45c0-6.8-1.21-12.32-3.63-16.57c-2.42-4.25-6.77-6.38-13.04-6.38c-6.15,0-10.72,2.16-13.73,6.47
			c-3.01,4.32-4.51,10.14-4.51,17.46v47.47h-30.01V4661.14z"/>
		<path d="M6783.96,4755.09c0,8.63-1.24,15.79-3.73,21.48c-2.49,5.69-6.21,10.43-11.18,14.22c-4.45,3.4-9.74,5.95-15.89,7.65
			c-6.15,1.7-13.6,2.55-22.36,2.55c-8.89,0-16.31-0.98-22.26-2.94c-5.95-1.96-10.89-4.64-14.81-8.04
			c-4.19-3.53-7.45-7.62-9.81-12.26c-2.35-4.64-3.66-9.58-3.92-14.81h30.01c0.39,4.05,2.32,7.71,5.79,10.98
			c3.46,3.27,8.46,4.9,15,4.9c7.06,0,12.68-1.7,16.87-5.1c4.18-3.4,6.28-8.83,6.28-16.28v-15.89c-2.62,4.32-6.54,7.85-11.77,10.59
			c-5.23,2.75-10.92,4.12-17.07,4.12c-6.8,0-13.04-1.18-18.73-3.53c-5.69-2.35-10.56-5.65-14.61-9.91
			c-4.06-4.25-7.23-9.28-9.51-15.1c-2.29-5.82-3.43-12.26-3.43-19.32c0-7.06,1.08-13.63,3.24-19.71c2.16-6.08,5.26-11.31,9.32-15.69
			c4.05-4.38,8.89-7.85,14.51-10.4c5.62-2.55,11.9-3.82,18.83-3.82c6.01,0,11.73,1.41,17.16,4.22c5.42,2.81,9.45,6.7,12.06,11.67
			v-13.53h30.01V4755.09z M6731.2,4684.28c-3.4,0-6.47,0.66-9.22,1.96c-2.75,1.31-5.1,3.07-7.06,5.3c-1.96,2.22-3.47,4.77-4.51,7.65
			c-1.05,2.88-1.57,5.95-1.57,9.22c0,3.27,0.52,6.38,1.57,9.32c1.04,2.94,2.55,5.49,4.51,7.65c1.96,2.16,4.32,3.89,7.06,5.2
			c2.75,1.31,5.82,1.96,9.22,1.96c3.4,0,6.5-0.65,9.32-1.96c2.81-1.31,5.2-3.04,7.16-5.2c1.96-2.16,3.5-4.71,4.61-7.65
			c1.11-2.94,1.67-6.05,1.67-9.32c0-3.27-0.56-6.34-1.67-9.22c-1.11-2.88-2.65-5.42-4.61-7.65c-1.96-2.22-4.35-3.99-7.16-5.3
			C6737.7,4684.94,6734.6,4684.28,6731.2,4684.28z"/>
		<path d="M6887.72,4645.84h-30.99v-27.46h93.96v27.46h-31.19v109.84h-31.78V4645.84z"/>
		<path d="M6960.37,4618.38h29.03v56.49c2.61-4.97,6.54-8.89,11.77-11.77c5.23-2.87,11.5-4.31,18.83-4.31
			c6.15,0,11.31,0.95,15.5,2.84c4.18,1.9,7.58,4.54,10.2,7.94c3.01,3.66,5.03,7.91,6.08,12.75c1.04,4.84,1.57,10.66,1.57,17.46v55.9
			h-29.03v-48.45c0-6.8-1.21-12.32-3.63-16.57c-2.42-4.25-6.77-6.38-13.04-6.38c-6.15,0-10.72,2.16-13.73,6.47
			c-3.01,4.32-4.51,10.14-4.51,17.46v47.47h-29.03V4618.38z"/>
		<path d="M7090.21,4715.67c0.13,2.88,0.55,5.59,1.28,8.14c0.72,2.55,1.89,4.77,3.53,6.67c1.63,1.9,3.76,3.4,6.38,4.51
			c2.61,1.11,5.88,1.67,9.81,1.67c5.23,0,9.19-1.04,11.87-3.14c2.68-2.09,4.54-4.64,5.59-7.65h29.42
			c-0.66,4.45-2.19,8.63-4.61,12.55c-2.42,3.92-5.62,7.36-9.61,10.3c-3.99,2.94-8.7,5.26-14.12,6.96
			c-5.43,1.7-11.54,2.55-18.34,2.55c-8.24,0-15.53-1.21-21.87-3.63c-6.34-2.42-11.67-5.85-15.99-10.3
			c-4.32-4.44-7.59-9.71-9.81-15.79c-2.23-6.08-3.33-12.78-3.33-20.11c0-6.93,1.08-13.4,3.24-19.42c2.16-6.01,5.36-11.28,9.61-15.79
			c4.25-4.51,9.48-8.07,15.69-10.69c6.21-2.61,13.44-3.92,21.67-3.92c7.45,0,14.15,1.18,20.1,3.53c5.95,2.35,11.05,5.49,15.3,9.42
			c4.25,3.92,7.52,8.5,9.81,13.73c2.29,5.23,3.43,10.72,3.43,16.48c0,1.96-0.03,4.05-0.1,6.28c-0.07,2.22-0.36,4.77-0.88,7.65
			H7090.21z M7110.41,4678.59c-5.88,0-10.72,1.7-14.52,5.1c-3.79,3.4-5.69,8.31-5.69,14.71h39.62c0-6.15-1.8-10.98-5.39-14.52
			C7120.84,4680.36,7116.16,4678.59,7110.41,4678.59z"/>
		<path d="M7282.12,4618.38c11.38,0,21.48,1.93,30.3,5.79c8.83,3.86,16.28,8.99,22.36,15.4c6.08,6.41,10.72,13.73,13.93,21.97
			c3.2,8.24,4.81,16.74,4.81,25.5c0,8.76-1.57,17.26-4.71,25.5s-7.75,15.56-13.83,21.97c-6.08,6.41-13.57,11.54-22.46,15.4
			c-8.89,3.86-19.03,5.79-30.4,5.79h-50.41v-137.3H7282.12z M7263.48,4645.84v82.38h17.07c6.41,0,12.13-1.14,17.16-3.43
			c5.03-2.29,9.28-5.36,12.75-9.22c3.46-3.86,6.11-8.24,7.94-13.14c1.83-4.9,2.75-10.03,2.75-15.4c0-5.23-0.92-10.33-2.75-15.3
			c-1.83-4.97-4.48-9.38-7.94-13.24c-3.47-3.86-7.72-6.93-12.75-9.22c-5.04-2.29-10.76-3.43-17.16-3.43H7263.48z"/>
		<path d="M7411.44,4758.23c-8.11,0-15.4-1.34-21.87-4.02c-6.47-2.68-11.97-6.28-16.48-10.79c-4.51-4.51-7.98-9.77-10.4-15.79
			c-2.42-6.01-3.63-12.42-3.63-19.22c0-6.8,1.21-13.21,3.63-19.22c2.42-6.01,5.88-11.28,10.4-15.79c4.51-4.51,10-8.11,16.48-10.79
			c6.47-2.68,13.76-4.02,21.87-4.02c8.24,0,15.59,1.34,22.07,4.02c6.47,2.68,11.96,6.28,16.48,10.79c4.51,4.51,7.97,9.78,10.4,15.79
			c2.42,6.02,3.63,12.43,3.63,19.22c0,6.8-1.21,13.21-3.63,19.22c-2.42,6.02-5.88,11.28-10.4,15.79c-4.51,4.51-10,8.11-16.48,10.79
			C7427.03,4756.89,7419.68,4758.23,7411.44,4758.23z M7411.44,4732.53c3.4,0,6.5-0.62,9.32-1.86c2.81-1.24,5.2-2.97,7.16-5.2
			c1.96-2.22,3.5-4.77,4.61-7.65c1.11-2.88,1.67-6.01,1.67-9.42c0-3.27-0.56-6.37-1.67-9.32c-1.11-2.94-2.65-5.49-4.61-7.65
			c-1.96-2.16-4.35-3.89-7.16-5.2c-2.81-1.31-5.92-1.96-9.32-1.96c-3.4,0-6.47,0.66-9.22,1.96c-2.75,1.31-5.1,3.04-7.06,5.2
			c-1.96,2.16-3.47,4.71-4.51,7.65c-1.05,2.94-1.57,6.05-1.57,9.32c0,3.4,0.52,6.54,1.57,9.42c1.05,2.88,2.55,5.43,4.51,7.65
			c1.96,2.22,4.32,3.96,7.06,5.2C7404.96,4731.92,7408.04,4732.53,7411.44,4732.53z"/>
		<path d="M7532.07,4755.68c-2.23,0.39-5,0.75-8.34,1.08c-3.33,0.32-7.23,0.49-11.67,0.49c-3.53,0-7.26-0.26-11.18-0.79
			c-3.92-0.52-7.55-1.86-10.89-4.02c-3.33-2.16-6.08-5.49-8.24-10c-2.16-4.51-3.24-10.69-3.24-18.54v-40.41h-14.91v-22.36h14.91
			v-28.05h29.81v28.05h21.58v22.36h-21.58v33.67c0,3.52,0.33,6.33,0.98,8.42c0.65,2.09,1.57,3.69,2.75,4.8s2.55,1.86,4.12,2.25
			c1.57,0.39,3.27,0.59,5.1,0.59c1.83,0,3.73,0,5.69,0c1.96,0,3.66-0.16,5.1-0.49V4755.68z"/>
		<path d="M7592.78,4699.97c4.18,1.18,8.11,2.45,11.77,3.82c3.66,1.37,6.87,3.07,9.61,5.1c2.75,2.03,4.93,4.54,6.57,7.55
			c1.63,3.01,2.45,6.8,2.45,11.38c0,5.62-1.11,10.37-3.33,14.22c-2.23,3.86-5.3,7-9.22,9.42c-3.92,2.42-8.47,4.15-13.63,5.2
			c-5.17,1.04-10.69,1.57-16.57,1.57c-13.47,0-24.1-2.94-31.88-8.83c-7.78-5.88-11.67-14.32-11.67-25.3h29.42
			c0,4.97,1.4,8.53,4.22,10.69c2.81,2.16,6.44,3.24,10.89,3.24c3.66,0,6.63-0.69,8.92-2.06c2.29-1.37,3.43-3.63,3.43-6.77
			c0-1.83-0.49-3.3-1.47-4.41c-0.98-1.11-2.49-2.16-4.51-3.14c-2.03-0.98-4.64-1.96-7.85-2.94c-3.21-0.98-7.03-2.19-11.47-3.63
			c-3.92-1.18-7.65-2.45-11.18-3.83c-3.53-1.37-6.64-3.04-9.32-5c-2.68-1.96-4.81-4.44-6.38-7.45c-1.57-3.01-2.35-6.8-2.35-11.38
			c0-9.81,3.76-17.07,11.28-21.77c7.52-4.71,17.68-7.06,30.5-7.06c6.8,0,12.78,0.82,17.95,2.45c5.16,1.64,9.42,3.89,12.75,6.77
			c3.33,2.88,5.85,6.28,7.55,10.2c1.7,3.92,2.55,8.11,2.55,12.55h-29.62c0-3.92-1.01-6.96-3.04-9.12c-2.03-2.16-5.13-3.24-9.32-3.24
			c-3.01,0-5.62,0.69-7.85,2.06c-2.23,1.37-3.33,3.5-3.33,6.38c0,1.7,0.52,3.11,1.57,4.22c1.04,1.11,2.58,2.13,4.61,3.04
			c2.03,0.92,4.54,1.83,7.55,2.75C7585.39,4697.56,7588.86,4698.67,7592.78,4699.97z"/>
	</g>
</g>
</svg>
