<svg xmlns="http://www.w3.org/2000/svg" xmlns:xlink="http://www.w3.org/1999/xlink" width="569.5" height="128" viewBox="0 0 569.5 128">
  <defs>
    <filter id="Path_80761" x="0" y="0" width="569.5" height="128" filterUnits="userSpaceOnUse">
      <feOffset dy="3" input="SourceAlpha"/>
      <feGaussianBlur stdDeviation="3" result="blur"/>
      <feFlood flood-opacity="0.161"/>
      <feComposite operator="in" in2="blur"/>
      <feComposite in="SourceGraphic"/>
    </filter>
  </defs>
  <g id="Group_24145" data-name="Group 24145" transform="translate(9 -284)">
    <g transform="matrix(1, 0, 0, 1, -9, 284)" filter="url(#Path_80761)">
      <path id="Path_80761-2" data-name="Path 80761" d="M0,0H551.5L535.725,11.786,551.5,24.531,535.725,38.258,551.5,51.985,535.725,66.3,551.5,81.65,535.725,95.292,551.5,110H0Z" transform="translate(9 6)" fill="#f8b709"/>
    </g>
    <path id="Path_80762" data-name="Path 80762" d="M8.4-10.02V0H2.539V-28.437H13.633a12.835,12.835,0,0,1,5.635,1.172,8.636,8.636,0,0,1,3.74,3.33,9.285,9.285,0,0,1,1.309,4.912,8.165,8.165,0,0,1-2.861,6.592q-2.861,2.412-7.92,2.412Zm0-4.746h5.234a5.147,5.147,0,0,0,3.545-1.094A3.978,3.978,0,0,0,18.4-18.984a4.691,4.691,0,0,0-1.23-3.379,4.6,4.6,0,0,0-3.4-1.328H8.4Zm32.52,8.906H30.645L28.691,0h-6.23L33.047-28.437h5.43L49.121,0h-6.23Zm-8.691-4.746h7.109L35.762-21.25Zm26.426-5.02L64.57-28.437h6.406L61.641-10.312V0H55.684V-10.312L46.348-28.437h6.426ZM81.23-28.437l7.3,20.625L95.8-28.437h7.7V0H97.617V-7.773L98.2-21.191,90.527,0H86.5L78.848-21.172l.586,13.4V0H73.574V-28.437Zm44.492,16.113h-11.25v7.617h13.2V0H108.613V-28.437h19.023v4.746H114.473v6.777h11.25ZM154.238,0h-5.859L136.973-18.711V0h-5.859V-28.437h5.859L148.4-9.687v-18.75h5.84ZM180.2-23.691h-8.711V0h-5.859V-23.691h-8.594v-4.746H180.2ZM202.852-10.41h-4.668V0h-5.859V-28.437h10.566q5.039,0,7.773,2.246a7.752,7.752,0,0,1,2.734,6.348,8.749,8.749,0,0,1-1.26,4.854,8.592,8.592,0,0,1-3.818,3.1L214.473-.273V0h-6.289Zm-4.668-4.746h4.727a4.839,4.839,0,0,0,3.418-1.123,4.014,4.014,0,0,0,1.211-3.1,4.3,4.3,0,0,0-1.143-3.164,4.748,4.748,0,0,0-3.506-1.152h-4.707Zm36.777,2.832h-11.25v7.617h13.2V0H217.852V-28.437h19.023v4.746H223.711v6.777h11.25Zm27.715,2.852a10.063,10.063,0,0,1-3.389,7.227A11.9,11.9,0,0,1,251.23.391a10.7,10.7,0,0,1-8.6-3.682q-3.135-3.682-3.135-10.107v-1.738a17.047,17.047,0,0,1,1.445-7.227,10.831,10.831,0,0,1,4.131-4.795,11.572,11.572,0,0,1,6.24-1.67,11.594,11.594,0,0,1,7.93,2.637,10.814,10.814,0,0,1,3.477,7.4h-5.859a5.939,5.939,0,0,0-1.533-3.994,5.678,5.678,0,0,0-4.014-1.24,4.978,4.978,0,0,0-4.385,2.1q-1.455,2.1-1.494,6.514v2.148q0,4.609,1.4,6.738a4.886,4.886,0,0,0,4.4,2.129,5.785,5.785,0,0,0,4.053-1.24,5.6,5.6,0,0,0,1.533-3.838Zm20.957-2.852h-11.25v7.617h13.2V0H266.523V-28.437h19.023v4.746H272.383v6.777h11.25ZM295.254,0h-5.859V-28.437h5.859Zm11.289-10.02V0h-5.859V-28.437h11.094a12.835,12.835,0,0,1,5.635,1.172,8.636,8.636,0,0,1,3.74,3.33,9.285,9.285,0,0,1,1.309,4.912,8.165,8.165,0,0,1-2.861,6.592q-2.861,2.412-7.92,2.412Zm0-4.746h5.234a5.147,5.147,0,0,0,3.545-1.094,3.978,3.978,0,0,0,1.221-3.125,4.691,4.691,0,0,0-1.23-3.379,4.6,4.6,0,0,0-3.4-1.328h-5.371Zm41.348-8.926H339.18V0H333.32V-23.691h-8.594v-4.746h23.164Z" transform="translate(52 359)" fill="#fff"/>
  </g>
</svg>
