<svg xmlns="http://www.w3.org/2000/svg" xmlns:xlink="http://www.w3.org/1999/xlink" width="144" height="144" viewBox="0 0 144 144">
  <defs>
    <filter id="Path_80764" x="0" y="0" width="144" height="144" filterUnits="userSpaceOnUse">
      <feOffset dy="3" input="SourceAlpha"/>
      <feGaussianBlur stdDeviation="9" result="blur"/>
      <feFlood flood-opacity="0.161"/>
      <feComposite operator="in" in2="blur"/>
      <feComposite in="SourceGraphic"/>
    </filter>
  </defs>
  <g id="Group_24148" data-name="Group 24148" transform="translate(-587 -1561)">
    <g transform="matrix(1, 0, 0, 1, 587, 1561)" filter="url(#Path_80764)">
      <path id="Path_80764-2" data-name="Path 80764" d="M45,0A45,45,0,1,1,0,45,45,45,0,0,1,45,0Z" transform="translate(27 24)" fill="#fec573"/>
    </g>
    <g id="print" transform="translate(639.936 1610.063)">
      <g id="Group_24116" data-name="Group 24116" transform="translate(31.022 17.726)">
        <g id="Group_24115" data-name="Group 24115">
          <path id="Path_80755" data-name="Path 80755" d="M412.18,245.61H410.8A1.393,1.393,0,0,0,409.406,247v1.383a1.393,1.393,0,0,0,1.391,1.391h1.383a1.393,1.393,0,0,0,1.391-1.391V247A1.393,1.393,0,0,0,412.18,245.61Zm.255,2.774a.255.255,0,0,1-.255.255H410.8a.255.255,0,0,1-.255-.255V247a.255.255,0,0,1,.255-.255h1.383a.255.255,0,0,1,.255.255Z" transform="translate(-409.406 -245.61)" stroke="#000" stroke-width="0.5"/>
        </g>
      </g>
      <g id="Group_24118" data-name="Group 24118" transform="translate(0 0)">
        <g id="Group_24117" data-name="Group 24117">
          <path id="Path_80756" data-name="Path 80756" d="M38.188,26.624a2.078,2.078,0,0,0-1.477-.618l-1.184,0,.026-7.131a1.987,1.987,0,0,0-1.986-1.994H31.552V13.109a1.433,1.433,0,0,0-1.431-1.431H8.605a1.433,1.433,0,0,0-1.431,1.431v3.753H5.265a1.991,1.991,0,0,0-1.987,1.98l-.025,7.044-1.1,0H2.145A2.094,2.094,0,0,0,.053,27.965L0,42.658a2.094,2.094,0,0,0,2.084,2.1l4.859.018-.933,2.6a.925.925,0,0,0,.867,1.237l25.036.091h0a.925.925,0,0,0,.873-1.231l-.914-2.608,4.767.017h.008A2.094,2.094,0,0,0,38.742,42.8L38.8,28.1A2.078,2.078,0,0,0,38.188,26.624Zm-6.636-8.613h2.015a.851.851,0,0,1,.851.854L34.392,26l-2.84-.01ZM8.31,13.109a.3.3,0,0,1,.3-.3H30.121a.3.3,0,0,1,.3.3V25.983L8.31,25.9V13.109Zm-3.9,5.736A.852.852,0,0,1,5.265,18H7.174v7.9l-2.785-.01ZM5.646,43.634l.009-2.6a.316.316,0,0,1,.316-.314h0l2.423.009L7.9,42.093l-.536,1.495-.019.052Zm1.535,3.845,1.1-3.076h0L9.6,40.726l19.646.071,1.291,3.684h0l1.081,3.084Zm25.958-3.745-1.662-.006-.223-.635-.8-2.288,2.381.009a.316.316,0,0,1,.314.317Zm4.467-.94a.957.957,0,0,1-.956.952h0l-2.372-.009.009-2.6a1.452,1.452,0,0,0-1.446-1.457l-3.156-.011-.029,0L9.2,39.589h0l-.028,0-3.2-.012H5.971A1.453,1.453,0,0,0,4.52,41.026l-.009,2.6-2.422-.009a.957.957,0,0,1-.952-.959l.053-14.693a.957.957,0,0,1,.956-.952h0l1.668.006,32.891.119a.957.957,0,0,1,.952.959Z" transform="translate(0 -11.678)" stroke="#000" stroke-width="0.5"/>
        </g>
      </g>
      <g id="Group_24120" data-name="Group 24120" transform="translate(10.839 9.141)">
        <g id="Group_24119" data-name="Group 24119">
          <path id="Path_80757" data-name="Path 80757" d="M155.008,132.313h-11.4a.568.568,0,1,0,0,1.136h11.4a.568.568,0,0,0,0-1.136Z" transform="translate(-143.041 -132.313)" stroke="#000" stroke-width="0.5"/>
        </g>
      </g>
      <g id="Group_24122" data-name="Group 24122" transform="translate(25.379 9.141)">
        <g id="Group_24121" data-name="Group 24121">
          <path id="Path_80758" data-name="Path 80758" d="M337.164,132.313H335.5a.568.568,0,0,0,0,1.136h1.665a.568.568,0,1,0,0-1.136Z" transform="translate(-334.931 -132.313)" stroke="#000" stroke-width="0.5"/>
        </g>
      </g>
      <g id="Group_24124" data-name="Group 24124" transform="translate(10.839 4.882)">
        <g id="Group_24123" data-name="Group 24123">
          <path id="Path_80759" data-name="Path 80759" d="M145.305,76.111h-1.7a.568.568,0,1,0,0,1.136h1.7a.568.568,0,1,0,0-1.136Z" transform="translate(-143.041 -76.111)" stroke="#000" stroke-width="0.5"/>
        </g>
      </g>
      <g id="Group_24126" data-name="Group 24126" transform="translate(15.61 4.882)">
        <g id="Group_24125" data-name="Group 24125">
          <path id="Path_80760" data-name="Path 80760" d="M218.011,76.111H206.577a.568.568,0,1,0,0,1.136h11.434a.568.568,0,1,0,0-1.136Z" transform="translate(-206.009 -76.111)" stroke="#000" stroke-width="0.5"/>
        </g>
      </g>
    </g>
  </g>
</svg>
